<svg width="74" height="71" viewBox="0 0 74 71" fill="none" xmlns="http://www.w3.org/2000/svg">
<path fill-rule="evenodd" clip-rule="evenodd" d="M37 69.8922C56.859 69.8922 72.8872 54.4561 72.8872 35.5C72.8872 16.5439 56.859 1.10781 37 1.10781C17.141 1.10781 1.11278 16.5439 1.11278 35.5C1.11278 54.4561 17.141 69.8922 37 69.8922ZM37 71C57.4345 71 74 55.1061 74 35.5C74 15.8939 57.4345 0 37 0C16.5655 0 0 15.8939 0 35.5C0 55.1061 16.5655 71 37 71Z" fill="black"/>
<mask id="mask0" mask-type="alpha" maskUnits="userSpaceOnUse" x="0" y="0" width="74" height="71">
<path d="M74 35.5C74 55.1061 57.4345 71 37 71C16.5655 71 0 55.1061 0 35.5C0 15.8939 16.5655 0 37 0C57.4345 0 74 15.8939 74 35.5Z" fill="#C4C4C4"/>
</mask>
<g mask="url(#mask0)">
<path fill-rule="evenodd" clip-rule="evenodd" d="M61.0654 26.9141C62.3938 26.2017 64.0168 26.4393 65.1346 27.4503C65.4414 27.7278 65.7429 28.0144 66.0387 28.3101L79.4363 41.7032C83.3847 45.6501 89.1258 46.7126 94.0394 44.8906C95.1686 44.4719 96.3995 44.3779 97.5982 44.4953C100.45 44.7748 103.412 43.6901 105.4 41.2414C106.73 39.6021 108.56 38.6614 110.464 38.4192C110.892 38.3647 111.327 38.412 111.739 38.5386C113.661 39.1281 115.471 40.183 116.992 41.7032L121.764 46.474L135.011 62.7942C135.205 63.0328 135.555 63.0693 135.794 62.8757C136.033 62.682 136.069 62.3317 135.876 62.0931L129.365 54.0717L134.954 59.6593C135.172 59.8765 135.524 59.8765 135.741 59.6593C135.959 59.442 135.959 59.0897 135.741 58.8725L122.592 45.7279L118.382 40.5403C116.679 38.443 114.262 37.3463 111.811 37.2503C111.425 37.2352 111.039 37.1968 110.659 37.1228C106.293 36.2712 101.596 37.5357 98.2142 40.9164C97.9522 41.1782 97.6817 41.4262 97.4035 41.6605C96.3647 42.5351 94.8615 42.6764 93.7784 41.8572C93.2858 41.4846 92.8281 41.0456 92.418 40.5403L84.4703 30.7487C79.7128 24.8874 72.3545 22.6646 65.6243 24.0802C64.2338 24.3727 62.7701 24.1682 61.5411 23.4553C51.7096 17.7527 38.905 19.1087 30.4874 27.5233L24.0137 33.9949C22.3723 35.6357 19.7646 35.6828 17.7146 34.5943C12.8556 32.0142 7.10641 31.6879 2.0209 33.6209C0.986378 34.0141 -0.141476 34.0978 -1.23775 33.9457C-4.79252 33.4525 -8.52823 34.5721 -11.2615 37.3045L-32.837 58.8725C-33.0543 59.0897 -33.0543 59.442 -32.837 59.6593C-32.6196 59.8765 -32.2673 59.8765 -32.0499 59.6593L-10.4745 38.0913C-9.16622 36.7835 -7.60455 35.8834 -5.94748 35.3911C-4.29923 34.9014 -3.70712 36.9619 -4.90026 38.1997L-20.8254 54.7202C-21.0387 54.9415 -21.0321 55.2937 -20.8108 55.5069C-20.5895 55.7201 -20.2372 55.7136 -20.0239 55.4924L-4.09875 38.9718C-3.16797 38.0062 -2.15595 37.1684 -1.08419 36.4581C-0.0785522 35.7918 1.21074 35.6764 2.26968 36.2545C3.14936 36.7346 3.97608 37.3469 4.7207 38.0913C9.02191 42.391 15.8054 42.6969 20.4599 39.0091C20.8541 38.6968 21.4254 38.6957 21.772 39.0602C29.678 47.375 43.094 46.8491 50.3245 37.941L55.5933 31.4498C57.1609 29.5185 59.0284 28.0066 61.0654 26.9141ZM55.4186 29.9442C57.8086 27.3041 58.0188 22.6799 54.5603 21.8282C46.4807 19.8384 37.5878 21.999 31.2745 28.3101L22.58 37.0017C22.2257 37.3558 22.2336 37.9306 22.5787 38.2936C30.0221 46.1217 42.6528 45.6266 49.4602 37.2399L54.7289 30.7487C54.9532 30.4725 55.1832 30.2043 55.4186 29.9442ZM67.5359 24.8971C66.2664 25.0418 65.9223 26.6201 66.8258 27.5233L80.2234 40.9163C83.124 43.8159 87.0769 45.0226 90.8532 44.5363C92.3215 44.3472 92.4864 42.3906 91.5536 41.2414L83.606 31.4498C79.5182 26.4137 73.392 24.2294 67.5359 24.8971ZM15.8655 40.0918C18.4741 39.4014 18.4614 36.0784 15.9898 34.9957C12.8726 33.6301 9.44339 33.1948 6.12672 33.6912C4.50299 33.9342 4.34684 36.1439 5.50778 37.3045C8.31414 40.1098 12.2867 41.039 15.8655 40.0918ZM99.0013 41.7032C98.3506 42.3536 98.6629 43.477 99.5741 43.3488C101.441 43.0862 103.229 42.15 104.535 40.5403C105.132 39.8051 104.607 38.3994 103.714 38.7174C101.994 39.3308 100.379 40.326 99.0013 41.7032Z" fill="#010101"/>
<path fill-rule="evenodd" clip-rule="evenodd" d="M6.94308 50.7531C16.522 60.3529 32.0524 60.3529 41.6313 50.7531L51.3944 40.9687C56.0151 36.3381 63.5065 36.3381 68.1271 40.9687C71.5766 44.4257 76.7919 45.0346 80.8633 42.7952C80.3297 42.397 79.8183 41.9552 79.3339 41.4698L65.9656 28.0723C65.0901 27.1949 64.1649 26.3977 63.199 25.6807C60.3147 26.7593 57.656 28.6034 55.5432 31.2131L50.2859 37.7064C43.0712 46.6174 29.6845 47.1435 21.7957 38.826C21.5895 38.6086 21.3792 38.3975 21.165 38.1928C16.5236 42.4845 9.28748 42.3724 4.78152 37.8567C3.56791 36.6404 2.13573 35.7767 0.611698 35.2656C-1.0648 36.1383 -2.63197 37.2955 -4.01848 38.7375L-4.52293 39.2621L6.94308 50.7531ZM-6.07923 39.2766L-21.0939 54.892L-20.2942 55.6643L-5.29374 40.0638L6.15773 51.5402C16.1704 61.5746 32.404 61.5746 42.4167 51.5402L52.1798 41.7558C56.3667 37.5598 63.1549 37.5598 67.3418 41.7558C71.2876 45.7103 77.3272 46.2877 81.8845 43.4882C86.0684 46.0605 91.3241 46.1925 95.6179 43.884C98.9627 44.9515 102.824 43.9928 105.241 41.0079C106.719 39.1825 108.814 38.223 110.941 38.1293C113.09 38.6712 115.126 39.7847 116.808 41.4698L121.571 46.2432L135.138 63L136 62.2987L129.154 53.8434L135.123 59.8254L135.909 59.0383L122.397 45.4969L118.194 40.3065C116.361 38.0422 113.696 36.9439 111.057 37.0115C106.544 35.9296 101.592 37.1533 98.0708 40.6827C97.2869 41.4683 96.4261 42.1296 95.5125 42.6667C94.2983 42.196 93.1802 41.4092 92.2874 40.3065L89.2563 36.5627L105.995 19.7871L105.21 19L88.5527 35.6937L84.3571 30.5117C79.0911 24.0075 70.6316 21.9822 63.3767 24.4358C53.371 17.3632 39.4447 18.313 30.492 27.2852L21.1324 36.6652C15.3001 31.6866 7.15448 30.8167 0.513241 34.0686C-2.64166 33.1497 -6.1032 33.5726 -8.97584 35.3372C-14.2934 32.0678 -21.3425 32.7406 -25.9475 37.3556C-30.9046 42.3236 -38.9417 42.3236 -43.8989 37.3556L-62.2146 19L-63 19.7871L-44.6843 38.1427C-39.2934 43.5453 -30.553 43.5453 -25.1621 38.1427C-21.0509 34.0225 -14.8211 33.3194 -9.98685 36.0334C-10.3967 36.3483 -10.7907 36.6937 -11.1658 37.0696L-33.0868 59.0383L-32.3014 59.8254L-10.3805 37.8567C-9.93829 37.4136 -9.46711 37.0172 -8.97304 36.6677C-8.35305 37.0977 -7.76274 37.5894 -7.21065 38.1427L-6.07923 39.2766ZM-5.30842 38.4749L-4.81824 37.9652C-3.63984 36.7396 -2.33856 35.7077 -0.953236 34.8693C-3.31966 34.4569 -5.7977 34.8438 -7.9547 36.0302C-7.42109 36.4284 -6.90967 36.8702 -6.42529 37.3556L-5.30842 38.4749ZM2.00594 34.6151C3.29767 35.19 4.5077 36.0081 5.56688 37.0696C9.6245 41.1361 16.1254 41.2616 20.3338 37.4462C15.1405 33.065 8.02905 32.1178 2.00594 34.6151ZM21.9577 37.4123L31.2773 28.0723C39.656 19.6753 52.5884 18.6232 62.1082 24.916C59.3167 26.0885 56.7517 27.9537 54.6807 30.5117L49.4234 37.0051C42.631 45.3945 30.0278 45.8898 22.6007 38.0591C22.3903 37.8373 22.1759 37.6216 21.9577 37.4123ZM64.4752 25.2573C65.2634 25.8803 66.0236 26.5563 66.7509 27.2852L80.1193 40.6827C80.6714 41.236 81.2617 41.7277 81.8817 42.1577C82.3758 41.8082 82.8469 41.4119 83.2891 40.9687L87.7631 36.485L83.4947 31.213C78.7131 25.3073 71.1362 23.322 64.4752 25.2573ZM88.4667 37.354L84.0745 41.7558C83.6994 42.1317 83.3054 42.4771 82.8955 42.792C86.3932 44.7556 90.6213 44.9305 94.2491 43.3166C93.1957 42.7719 92.2301 42.0024 91.4249 41.0079L88.4667 37.354ZM96.9463 43.0692C99.6189 43.5497 102.498 42.6288 104.378 40.3065C105.318 39.1463 106.475 38.2922 107.736 37.7442C104.52 37.7683 101.31 39.0102 98.8561 41.4698C98.2577 42.0695 97.618 42.6026 96.9463 43.0692Z" fill="#010101"/>
</g>
</svg>
