<svg width="89" height="71" viewBox="0 0 89 71" fill="none" xmlns="http://www.w3.org/2000/svg">
<path fill-rule="evenodd" clip-rule="evenodd" d="M53.814 69.9498C72.6718 69.9498 87.9591 54.5261 87.9591 35.5C87.9591 16.4739 72.6718 1.05022 53.814 1.05022C34.9562 1.05022 19.6689 16.4739 19.6689 35.5C19.6689 35.5698 19.7209 35.6284 19.7895 35.637C21.4818 35.8497 23.0995 36.3048 24.6074 36.9669C26.0198 37.5871 27.6399 37.5583 29.1391 37.2017C29.7641 37.0531 30.4158 36.9744 31.0857 36.9744C35.7533 36.9744 39.5372 40.7921 39.5372 45.5014C39.5372 48.6071 37.8916 51.325 35.4321 52.8159C35.2807 52.9076 35.186 53.0719 35.186 53.25C35.186 55.3187 34.8352 57.3048 34.1904 59.1509C33.491 61.1536 33.8352 63.5207 35.6149 64.6539C40.8831 68.0085 47.1238 69.9498 53.814 69.9498ZM29.0865 66.6889C30.9004 65.1084 33.616 64.6726 35.6684 65.9214C40.9667 69.1453 47.1756 71 53.814 71C73.2467 71 89 55.1061 89 35.5C89 15.8939 73.2467 0 53.814 0C34.3813 0 18.628 15.8939 18.628 35.5C18.628 35.5164 18.6143 35.5294 18.5981 35.5285C18.2654 35.5096 17.9303 35.5 17.593 35.5C7.87666 35.5 0 43.4469 0 53.25C0 63.0531 7.87666 71 17.593 71C21.9863 71 26.0035 69.3753 29.0865 66.6889ZM28.9891 59.1532C30.3807 60.6393 32.7695 60.2339 33.3797 58.2844C33.553 57.7307 33.6985 57.1645 33.8145 56.5876C34.1121 55.107 32.583 54.0284 31.0857 54.0284C26.418 54.0284 22.6341 50.2107 22.6341 45.5014C22.6341 44.1017 22.9684 42.7808 23.5607 41.6155C24.3612 40.0408 24.2352 37.8464 22.5618 37.3158C21.1061 36.8541 19.7292 38.08 19.9092 39.6088C20.796 47.1364 24.0884 53.9194 28.9891 59.1532ZM17.593 36.5502C18.1889 36.5502 18.6556 37.0434 18.691 37.6436C19.205 46.3499 22.8289 54.2112 28.4574 60.1124C29.9474 61.6745 30.327 64.1359 28.7389 65.5962C25.7975 68.3007 21.8861 69.9498 17.593 69.9498C8.45155 69.9498 1.04094 62.473 1.04094 53.25C1.04094 44.027 8.45155 36.5502 17.593 36.5502ZM29.0516 41.1989C27.8058 39.9927 25.7842 39.9954 24.8497 41.4602C24.1063 42.6255 23.6751 44.0126 23.6751 45.5014C23.6751 49.6307 26.9929 52.9781 31.0857 52.9781C31.1755 52.9781 31.2649 52.9765 31.3539 52.9733C33.0747 52.9116 34.1078 51.1657 33.72 49.4731C32.984 46.2615 31.3299 43.4045 29.0516 41.1989ZM33.1999 45.0493C34.6585 47.8693 38.3237 49.07 38.4863 45.8933C38.4929 45.7635 38.4963 45.6329 38.4963 45.5014C38.4963 41.3721 35.1784 38.0247 31.0857 38.0247C29.548 38.0247 29.3068 39.9163 30.3645 41.0423C31.4835 42.2335 32.4404 43.5811 33.1999 45.0493Z" fill="#010101"/>
</svg>
