<svg width="909" height="110" viewBox="0 0 909 110" fill="none" xmlns="http://www.w3.org/2000/svg">
<mask id="path-1-inside-1" fill="white">
<path fill-rule="evenodd" clip-rule="evenodd" d="M7.90393 51.5854V85.0449H-4V26.6065H7.90393V31.9926C11.9876 27.5247 17.8806 25.1168 24.2319 25.1168C31.7144 25.1168 37.9505 28.4389 42.148 34.1703C46.9072 28.554 54.052 25.1168 62.2166 25.1168C76.8439 25.1168 86.5979 36.0014 86.5979 51.5854V85.0449H74.6914V52.0445C74.6914 43.1061 69.4753 37.1484 61.5384 37.1484C53.4851 37.1484 47.2516 43.3349 47.2516 51.5854V85.0449H35.3437V52.0445C35.3437 43.1061 30.1276 37.1484 22.1908 37.1484C14.14 37.1484 7.90393 43.3349 7.90393 51.5854ZM90.5641 55.8245C90.5641 38.9796 104.397 25.1169 120.387 25.1169C128.095 25.1169 135.691 28.3253 140.001 33.0233V26.6066H151.908V85.0424H140.001V78.6257C135.691 83.3238 128.095 86.5322 120.387 86.5322C104.397 86.5322 90.5641 72.6694 90.5641 55.8245ZM140.115 55.8245C140.115 44.9399 132.288 37.1499 121.747 37.1499C111.204 37.1499 103.377 44.9399 103.377 55.8245C103.377 66.7091 111.204 74.5031 121.747 74.5031C132.288 74.5031 140.115 66.7091 140.115 55.8245ZM168.685 17.4391C164.267 17.4391 160.411 13.7743 160.411 9.0775C160.411 4.49186 164.267 0.824407 168.685 0.824407C173.335 0.824407 176.853 4.83585 176.853 9.0775C176.853 13.4303 173.335 17.4391 168.685 17.4391ZM162.68 85.0435H174.584V26.6077H162.68V85.0435Z"/>
<path fill-rule="evenodd" clip-rule="evenodd" d="M183.656 85.0431H195.56V2.5453H183.656V85.0431Z"/>
<path fill-rule="evenodd" clip-rule="evenodd" d="M211.773 86.7621C207.352 86.7621 203.498 83.0946 203.498 78.3978C203.498 73.8148 207.352 70.1474 211.773 70.1474C216.425 70.1474 219.94 74.1588 219.94 78.3978C219.94 82.7533 216.425 86.7621 211.773 86.7621ZM241.483 56.2837V85.0425H229.577V26.6067H241.483V34.627C245.902 29.0147 251.118 26.6067 259.623 26.6067H264.158V38.0642H259.623C248.625 38.0642 241.483 45.284 241.483 56.2837ZM312.235 59.4913V26.606H324.136V85.0444H312.235V79.1992C307.7 84.0124 301.464 86.5341 294.544 86.5341C280.032 86.5341 270.392 75.6495 270.392 59.7215V26.606H282.299V59.0348C282.299 68.5448 287.966 74.5024 296.471 74.5024C305.428 74.5024 312.235 67.7444 312.235 59.4913ZM353.207 54.9995C353.207 38.1572 367.036 24.2945 383.027 24.2945C390.737 24.2945 398.333 27.5002 402.641 32.2009V1.71956H414.547V84.22H402.641V77.7993C398.333 82.5014 390.737 85.7097 383.027 85.7097C367.036 85.7097 353.207 71.843 353.207 54.9995ZM402.757 54.9995C402.757 44.1135 394.931 36.3235 384.387 36.3235C373.843 36.3235 366.016 44.1135 366.016 54.9995C366.016 65.8867 373.843 73.6767 384.387 73.6767C394.931 73.6767 402.757 65.8867 402.757 54.9995ZM431.897 16.6147C427.476 16.6147 423.62 12.9472 423.62 8.25045C423.62 3.66746 427.476 0 431.897 0C436.544 0 440.062 4.01145 440.062 8.25045C440.062 12.6059 436.544 16.6147 431.897 16.6147ZM425.887 84.2191H437.793V25.7846H425.887V84.2191ZM492.331 79.0635V77.8013C488.02 82.5007 480.424 85.7091 472.716 85.7091C456.724 85.7091 442.894 71.8437 442.894 54.9988C442.894 38.1579 456.724 24.2952 472.716 24.2952C480.424 24.2952 488.02 27.4995 492.331 32.2003V25.7836H504.235V78.9484C504.235 97.283 491.765 110 473.849 110C463.303 110 453.437 105.647 447.199 98.3123L455.704 89.4916C461.488 95.4492 466.815 97.9709 473.506 97.9709C484.955 97.9709 492.331 90.4072 492.331 79.0635ZM455.704 54.9988C455.704 65.8861 463.533 73.6774 474.074 73.6774C484.618 73.6774 492.444 65.8861 492.444 54.9988C492.444 44.1155 484.618 36.3242 474.074 36.3242C463.533 36.3242 455.704 44.1155 455.704 54.9988ZM518.747 16.6147C514.326 16.6147 510.47 12.9472 510.47 8.25045C510.47 3.66746 514.326 0 518.747 0C523.397 0 526.912 4.01145 526.912 8.25045C526.912 12.6059 523.397 16.6147 518.747 16.6147ZM512.742 84.2191H524.646V25.7846H512.742V84.2191ZM572.836 25.7829V37.2391H554.693V63.9366C554.693 69.7817 558.549 73.6794 564.104 73.6794C567.732 73.6794 571.589 72.0719 574.082 70.0119L580.546 78.7175C576.692 82.844 570.569 85.7084 563.425 85.7084C551.066 85.7084 542.785 76.9989 542.785 64.0517V37.2391H530.881V25.7829H542.785V1.72088H554.693V25.7829H572.836Z"/>
<path fill-rule="evenodd" clip-rule="evenodd" d="M577.146 54.9994C577.146 38.1572 590.979 24.2944 606.969 24.2944C614.677 24.2944 622.273 27.5002 626.583 32.2009V25.7842H638.49V84.22H626.583V77.7993C622.273 82.5014 614.677 85.7097 606.969 85.7097C590.979 85.7097 577.146 71.843 577.146 54.9994ZM626.697 54.9994C626.697 44.1135 618.87 36.3235 608.327 36.3235C597.786 36.3235 589.959 44.1135 589.959 54.9994C589.959 65.8867 597.786 73.6767 608.327 73.6767C618.87 73.6767 626.697 65.8867 626.697 54.9994Z"/>
<path fill-rule="evenodd" clip-rule="evenodd" d="M649.26 84.2188H661.166V1.72229H649.26V84.2188Z"/>
<path fill-rule="evenodd" clip-rule="evenodd" d="M730.899 25.7829V37.239H712.756V63.9365C712.756 69.7817 716.612 73.6793 722.17 73.6793C725.795 73.6793 729.652 72.0718 732.145 70.0119L738.609 78.7174C734.754 82.844 728.632 85.7083 721.488 85.7083C709.129 85.7083 700.848 76.9988 700.848 64.0516V37.239H688.944V25.7829H700.848V1.72085H712.756V25.7829H730.899Z"/>
<path fill-rule="evenodd" clip-rule="evenodd" d="M795.639 60.7309H748.133C750.399 68.4072 757.428 73.6781 766.951 73.6781C774.892 73.6781 780.56 70.3547 784.644 66.1157L792.466 74.0235C785.662 81.4695 776.25 85.7098 766.273 85.7098C748.811 85.7098 735.207 72.3035 735.207 55.3449C735.207 38.1573 749.036 24.2933 766.273 24.2933C784.078 24.2933 795.979 38.9591 795.979 55.2298C795.979 56.8346 795.869 58.4408 795.639 60.7309ZM747.903 49.8437H783.849C781.809 41.4782 775.002 35.7521 766.047 35.7521C757.087 35.7521 750.06 41.4782 747.903 49.8437ZM855.853 70.4675C850.523 79.9775 840.66 85.7089 829.776 85.7089C812.649 85.7089 798.818 71.8422 798.818 54.9986C798.818 38.1564 812.649 24.2937 829.776 24.2937C840.206 24.2937 849.503 29.4469 855.061 38.1564L845.99 44.9171C842.023 39.7599 836.804 36.3227 830 36.3227C819.57 36.3227 811.629 44.3429 811.629 54.9986C811.629 65.6557 819.57 73.6786 830 73.6786C836.35 73.6786 842.133 70.5826 846.558 64.1659L855.853 70.4675ZM871.159 51.3328V84.2207H859.253V1.72034H871.159V31.6275C875.695 26.8117 881.931 24.2926 888.848 24.2926C903.362 24.2926 913 35.1772 913 51.1065V84.2207H901.093V51.7919C901.093 42.2819 895.428 36.3216 886.921 36.3216C877.964 36.3216 871.159 43.0823 871.159 51.3328Z"/>
</mask>
<path d="M7.90393 85.0449V86.0449H8.90393V85.0449H7.90393ZM-4 85.0449H-5V86.0449H-4V85.0449ZM-4 26.6065V25.6065H-5V26.6065H-4ZM7.90393 26.6065H8.90393V25.6065H7.90393V26.6065ZM7.90393 31.9926H6.90393V34.5689L8.64206 32.6672L7.90393 31.9926ZM42.148 34.1703L41.3413 34.7612L42.0908 35.7846L42.911 34.8168L42.148 34.1703ZM86.5979 85.0449V86.0449H87.5979V85.0449H86.5979ZM74.6914 85.0449H73.6914V86.0449H74.6914V85.0449ZM47.2516 85.0449V86.0449H48.2516V85.0449H47.2516ZM35.3437 85.0449H34.3437V86.0449H35.3437V85.0449ZM140.001 33.0233L139.264 33.6994L141.001 35.5926V33.0233H140.001ZM140.001 26.6066V25.6066H139.001V26.6066H140.001ZM151.908 26.6066H152.908V25.6066H151.908V26.6066ZM151.908 85.0424V86.0424H152.908V85.0424H151.908ZM140.001 85.0424H139.001V86.0424H140.001V85.0424ZM140.001 78.6257H141.001V76.0564L139.264 77.9497L140.001 78.6257ZM162.68 85.0435H161.68V86.0435H162.68V85.0435ZM174.584 85.0435V86.0435H175.584V85.0435H174.584ZM174.584 26.6077H175.584V25.6077H174.584V26.6077ZM162.68 26.6077V25.6077H161.68V26.6077H162.68ZM183.656 85.0431H182.656V86.0431H183.656V85.0431ZM195.56 85.0431V86.0431H196.56V85.0431H195.56ZM195.56 2.5453H196.56V1.5453H195.56V2.5453ZM183.656 2.5453V1.5453H182.656V2.5453H183.656ZM241.483 85.0425V86.0425H242.483V85.0425H241.483ZM229.577 85.0425H228.577V86.0425H229.577V85.0425ZM229.577 26.6067V25.6067H228.577V26.6067H229.577ZM241.483 26.6067H242.483V25.6067H241.483V26.6067ZM241.483 34.627H240.483V37.5136L242.269 35.2456L241.483 34.627ZM264.158 26.6067H265.158V25.6067H264.158V26.6067ZM264.158 38.0642V39.0642H265.158V38.0642H264.158ZM312.235 26.606V25.606H311.235V26.606H312.235ZM324.136 26.606H325.136V25.606H324.136V26.606ZM324.136 85.0444V86.0444H325.136V85.0444H324.136ZM312.235 85.0444H311.235V86.0444H312.235V85.0444ZM312.235 79.1992H313.235V76.6798L311.507 78.5134L312.235 79.1992ZM270.392 26.606V25.606H269.392V26.606H270.392ZM282.299 26.606H283.299V25.606H282.299V26.606ZM402.641 32.2009L401.904 32.8765L403.641 34.7724V32.2009H402.641ZM402.641 1.71956V0.719561H401.641V1.71956H402.641ZM414.547 1.71956H415.547V0.719561H414.547V1.71956ZM414.547 84.22V85.22H415.547V84.22H414.547ZM402.641 84.22H401.641V85.22H402.641V84.22ZM402.641 77.7993H403.641V75.2273L401.903 77.1238L402.641 77.7993ZM425.887 84.2191H424.887V85.2191H425.887V84.2191ZM437.793 84.2191V85.2191H438.793V84.2191H437.793ZM437.793 25.7846H438.793V24.7846H437.793V25.7846ZM425.887 25.7846V24.7846H424.887V25.7846H425.887ZM492.331 77.8013H493.331V75.2315L491.594 77.1254L492.331 77.8013ZM492.331 32.2003L491.594 32.8761L493.331 34.7706V32.2003H492.331ZM492.331 25.7836V24.7836H491.331V25.7836H492.331ZM504.235 25.7836H505.235V24.7836H504.235V25.7836ZM447.199 98.3123L446.479 97.6182L445.85 98.2702L446.437 98.9602L447.199 98.3123ZM455.704 89.4916L456.421 88.795L455.701 88.0535L454.984 88.7975L455.704 89.4916ZM512.742 84.2191H511.742V85.2191H512.742V84.2191ZM524.646 84.2191V85.2191H525.646V84.2191H524.646ZM524.646 25.7846H525.646V24.7846H524.646V25.7846ZM512.742 25.7846V24.7846H511.742V25.7846H512.742ZM572.836 25.7829H573.836V24.7829H572.836V25.7829ZM572.836 37.2391V38.2391H573.836V37.2391H572.836ZM554.693 37.2391V36.2391H553.693V37.2391H554.693ZM574.082 70.0119L574.885 69.4158L574.257 68.5701L573.445 69.2411L574.082 70.0119ZM580.546 78.7175L581.277 79.4001L581.846 78.7908L581.349 78.1214L580.546 78.7175ZM542.785 37.2391H543.785V36.2391H542.785V37.2391ZM530.881 37.2391H529.881V38.2391H530.881V37.2391ZM530.881 25.7829V24.7829H529.881V25.7829H530.881ZM542.785 25.7829V26.7829H543.785V25.7829H542.785ZM542.785 1.72088V0.720878H541.785V1.72088H542.785ZM554.693 1.72088H555.693V0.720878H554.693V1.72088ZM554.693 25.7829H553.693V26.7829H554.693V25.7829ZM626.583 32.2009L625.846 32.8767L627.583 34.7712V32.2009H626.583ZM626.583 25.7842V24.7842H625.583V25.7842H626.583ZM638.49 25.7842H639.49V24.7842H638.49V25.7842ZM638.49 84.22V85.22H639.49V84.22H638.49ZM626.583 84.22H625.583V85.22H626.583V84.22ZM626.583 77.7993H627.583V75.2285L625.846 77.1236L626.583 77.7993ZM649.26 84.2188H648.26V85.2188H649.26V84.2188ZM661.166 84.2188V85.2188H662.166V84.2188H661.166ZM661.166 1.72229H662.166V0.72229H661.166V1.72229ZM649.26 1.72229V0.72229H648.26V1.72229H649.26ZM730.899 25.7829H731.899V24.7829H730.899V25.7829ZM730.899 37.239V38.239H731.899V37.239H730.899ZM712.756 37.239V36.239H711.756V37.239H712.756ZM732.145 70.0119L732.948 69.4157L732.32 68.57L731.508 69.241L732.145 70.0119ZM738.609 78.7174L739.34 79.4L739.909 78.7907L739.412 78.1213L738.609 78.7174ZM700.848 37.239H701.848V36.239H700.848V37.239ZM688.944 37.239H687.944V38.239H688.944V37.239ZM688.944 25.7829V24.7829H687.944V25.7829H688.944ZM700.848 25.7829V26.7829H701.848V25.7829H700.848ZM700.848 1.72085V0.720847H699.848V1.72085H700.848ZM712.756 1.72085H713.756V0.720847H712.756V1.72085ZM712.756 25.7829H711.756V26.7829H712.756V25.7829ZM795.639 60.7309V61.7309H796.543L796.634 60.8311L795.639 60.7309ZM748.133 60.7309V59.7309H746.795L747.174 61.0141L748.133 60.7309ZM784.644 66.1157L785.354 65.4124L784.634 64.6842L783.923 65.4219L784.644 66.1157ZM792.466 74.0235L793.205 74.698L793.846 73.9961L793.177 73.3202L792.466 74.0235ZM747.903 49.8437L746.934 49.5939L746.612 50.8437H747.903V49.8437ZM783.849 49.8437V50.8437H785.122L784.82 49.6068L783.849 49.8437ZM855.853 70.4675L856.725 70.9565L857.174 70.1553L856.414 69.6398L855.853 70.4675ZM855.061 38.1564L855.658 38.9582L856.404 38.4025L855.904 37.6185L855.061 38.1564ZM845.99 44.9171L845.197 45.5268L845.798 46.3075L846.588 45.7189L845.99 44.9171ZM846.558 64.1659L847.119 63.3382L846.298 62.7815L845.735 63.5982L846.558 64.1659ZM871.159 84.2207V85.2207H872.159V84.2207H871.159ZM859.253 84.2207H858.253V85.2207H859.253V84.2207ZM859.253 1.72034V0.720341H858.253V1.72034H859.253ZM871.159 1.72034H872.159V0.720341H871.159V1.72034ZM871.159 31.6275H870.159V34.148L871.888 32.3131L871.159 31.6275ZM913 84.2207V85.2207H914V84.2207H913ZM901.093 84.2207H900.093V85.2207H901.093V84.2207ZM6.90393 51.5854V85.0449H8.90393V51.5854H6.90393ZM7.90393 84.0449H-4V86.0449H7.90393V84.0449ZM-3 85.0449V26.6065H-5V85.0449H-3ZM-4 27.6065H7.90393V25.6065H-4V27.6065ZM6.90393 26.6065V31.9926H8.90393V26.6065H6.90393ZM8.64206 32.6672C12.5176 28.427 18.1325 26.1168 24.2319 26.1168V24.1168C17.6287 24.1168 11.4575 26.6223 7.16579 31.3179L8.64206 32.6672ZM24.2319 26.1168C31.3894 26.1168 37.3284 29.2819 41.3413 34.7612L42.9548 33.5794C38.5726 27.596 32.0394 24.1168 24.2319 24.1168V26.1168ZM42.911 34.8168C47.4768 29.4287 54.3406 26.1168 62.2166 26.1168V24.1168C53.7634 24.1168 46.3377 27.6793 41.3851 33.5238L42.911 34.8168ZM62.2166 26.1168C69.2686 26.1168 75.0894 28.7336 79.1543 33.1817C83.2265 37.6377 85.5979 44.0011 85.5979 51.5854H87.5979C87.5979 43.5857 85.0924 36.7147 80.6307 31.8325C76.1617 26.9422 69.7918 24.1168 62.2166 24.1168V26.1168ZM85.5979 51.5854V85.0449H87.5979V51.5854H85.5979ZM86.5979 84.0449H74.6914V86.0449H86.5979V84.0449ZM75.6914 85.0449V52.0445H73.6914V85.0449H75.6914ZM75.6914 52.0445C75.6914 47.3848 74.3304 43.409 71.8416 40.5836C69.3423 37.7462 65.7732 36.1484 61.5384 36.1484V38.1484C65.2405 38.1484 68.2479 39.5295 70.3408 41.9055C72.4443 44.2935 73.6914 47.7658 73.6914 52.0445H75.6914ZM61.5384 36.1484C52.9281 36.1484 46.2516 42.7874 46.2516 51.5854H48.2516C48.2516 43.8825 54.0421 38.1484 61.5384 38.1484V36.1484ZM46.2516 51.5854V85.0449H48.2516V51.5854H46.2516ZM47.2516 84.0449H35.3437V86.0449H47.2516V84.0449ZM36.3437 85.0449V52.0445H34.3437V85.0449H36.3437ZM36.3437 52.0445C36.3437 47.3848 34.9827 43.409 32.4939 40.5836C29.9946 37.7462 26.4255 36.1484 22.1908 36.1484V38.1484C25.8928 38.1484 28.9002 39.5295 30.9932 41.9055C33.0966 44.2935 34.3437 47.7658 34.3437 52.0445H36.3437ZM22.1908 36.1484C13.5831 36.1484 6.90393 42.7873 6.90393 51.5854H8.90393C8.90393 43.8826 14.6969 38.1484 22.1908 38.1484V36.1484ZM91.5641 55.8245C91.5641 39.5123 104.968 26.1169 120.387 26.1169V24.1169C103.825 24.1169 89.5641 38.447 89.5641 55.8245H91.5641ZM120.387 26.1169C127.854 26.1169 135.169 29.2352 139.264 33.6994L140.738 32.3473C136.213 27.4153 128.335 24.1169 120.387 24.1169V26.1169ZM141.001 33.0233V26.6066H139.001V33.0233H141.001ZM140.001 27.6066H151.908V25.6066H140.001V27.6066ZM150.908 26.6066V85.0424H152.908V26.6066H150.908ZM151.908 84.0424H140.001V86.0424H151.908V84.0424ZM141.001 85.0424V78.6257H139.001V85.0424H141.001ZM139.264 77.9497C135.169 82.4138 127.854 85.5322 120.387 85.5322V87.5322C128.335 87.5322 136.213 84.2338 140.738 79.3017L139.264 77.9497ZM120.387 85.5322C104.968 85.5322 91.5641 72.1368 91.5641 55.8245H89.5641C89.5641 73.202 103.825 87.5322 120.387 87.5322V85.5322ZM141.115 55.8245C141.115 44.3973 132.85 36.1499 121.747 36.1499V38.1499C131.726 38.1499 139.115 45.4825 139.115 55.8245H141.115ZM121.747 36.1499C110.642 36.1499 102.377 44.3972 102.377 55.8245H104.377C104.377 45.4826 111.765 38.1499 121.747 38.1499V36.1499ZM102.377 55.8245C102.377 67.2515 110.641 75.5031 121.747 75.5031V73.5031C111.766 73.5031 104.377 66.1667 104.377 55.8245H102.377ZM121.747 75.5031C132.85 75.5031 141.115 67.2514 141.115 55.8245H139.115C139.115 66.1668 131.726 73.5031 121.747 73.5031V75.5031ZM168.685 16.4391C164.811 16.4391 161.411 13.2139 161.411 9.0775H159.411C159.411 14.3347 163.722 18.4391 168.685 18.4391V16.4391ZM161.411 9.0775C161.411 5.06053 164.802 1.82441 168.685 1.82441V-0.175593C163.731 -0.175593 159.411 3.92319 159.411 9.0775H161.411ZM168.685 1.82441C172.737 1.82441 175.853 5.34199 175.853 9.0775H177.853C177.853 4.32971 173.932 -0.175593 168.685 -0.175593V1.82441ZM175.853 9.0775C175.853 12.9324 172.729 16.4391 168.685 16.4391V18.4391C173.94 18.4391 177.853 13.9281 177.853 9.0775H175.853ZM162.68 86.0435H174.584V84.0435H162.68V86.0435ZM175.584 85.0435V26.6077H173.584V85.0435H175.584ZM174.584 25.6077H162.68V27.6077H174.584V25.6077ZM161.68 26.6077V85.0435H163.68V26.6077H161.68ZM183.656 86.0431H195.56V84.0431H183.656V86.0431ZM196.56 85.0431V2.5453H194.56V85.0431H196.56ZM195.56 1.5453H183.656V3.5453H195.56V1.5453ZM182.656 2.5453V85.0431H184.656V2.5453H182.656ZM211.773 85.7621C207.896 85.7621 204.498 82.5348 204.498 78.3978H202.498C202.498 83.6544 206.807 87.7621 211.773 87.7621V85.7621ZM204.498 78.3978C204.498 74.3835 207.887 71.1474 211.773 71.1474V69.1474C206.816 69.1474 202.498 73.2462 202.498 78.3978H204.498ZM211.773 71.1474C215.828 71.1474 218.94 74.665 218.94 78.3978H220.94C220.94 73.6527 217.022 69.1474 211.773 69.1474V71.1474ZM218.94 78.3978C218.94 82.2559 215.819 85.7621 211.773 85.7621V87.7621C217.031 87.7621 220.94 83.2507 220.94 78.3978H218.94ZM240.483 56.2837V85.0425H242.483V56.2837H240.483ZM241.483 84.0425H229.577V86.0425H241.483V84.0425ZM230.577 85.0425V26.6067H228.577V85.0425H230.577ZM229.577 27.6067H241.483V25.6067H229.577V27.6067ZM240.483 26.6067V34.627H242.483V26.6067H240.483ZM242.269 35.2456C244.398 32.5411 246.684 30.6506 249.428 29.4254C252.182 28.1961 255.462 27.6067 259.623 27.6067V25.6067C255.279 25.6067 251.699 26.2213 248.613 27.5991C245.518 28.9809 242.987 31.1005 240.697 34.0084L242.269 35.2456ZM259.623 27.6067H264.158V25.6067H259.623V27.6067ZM263.158 26.6067V38.0642H265.158V26.6067H263.158ZM264.158 37.0642H259.623V39.0642H264.158V37.0642ZM259.623 37.0642C253.9 37.0642 249.096 38.9472 245.72 42.3442C242.344 45.7405 240.483 50.5637 240.483 56.2837H242.483C242.483 51.0041 244.193 46.7175 247.138 43.754C250.083 40.7912 254.348 39.0642 259.623 39.0642V37.0642ZM313.235 59.4913V26.606H311.235V59.4913H313.235ZM312.235 27.606H324.136V25.606H312.235V27.606ZM323.136 26.606V85.0444H325.136V26.606H323.136ZM324.136 84.0444H312.235V86.0444H324.136V84.0444ZM313.235 85.0444V79.1992H311.235V85.0444H313.235ZM311.507 78.5134C307.177 83.1087 301.213 85.5341 294.544 85.5341V87.5341C301.714 87.5341 308.222 84.9161 312.963 79.885L311.507 78.5134ZM294.544 85.5341C287.553 85.5341 281.793 82.92 277.771 78.4333C273.74 73.9369 271.392 67.4862 271.392 59.7215H269.392C269.392 67.8848 271.864 74.8405 276.281 79.7683C280.708 84.706 287.023 87.5341 294.544 87.5341V85.5341ZM271.392 59.7215V26.606H269.392V59.7215H271.392ZM270.392 27.606H282.299V25.606H270.392V27.606ZM281.299 26.606V59.0348H283.299V26.606H281.299ZM281.299 59.0348C281.299 63.9871 282.777 68.1148 285.462 71.0143C288.154 73.9211 291.975 75.5024 296.471 75.5024V73.5024C292.463 73.5024 289.198 72.105 286.929 69.6554C284.654 67.1987 283.299 63.5926 283.299 59.0348H281.299ZM296.471 75.5024C305.946 75.5024 313.235 68.3304 313.235 59.4913H311.235C311.235 67.1583 304.91 73.5024 296.471 73.5024V75.5024ZM354.207 54.9995C354.207 38.6898 367.608 25.2945 383.027 25.2945V23.2945C366.465 23.2945 352.207 37.6247 352.207 54.9995H354.207ZM383.027 25.2945C390.497 25.2945 397.811 28.4104 401.904 32.8765L403.378 31.5253C398.856 26.59 390.977 23.2945 383.027 23.2945V25.2945ZM403.641 32.2009V1.71956H401.641V32.2009H403.641ZM402.641 2.71956H414.547V0.719561H402.641V2.71956ZM413.547 1.71956V84.22H415.547V1.71956H413.547ZM414.547 83.22H402.641V85.22H414.547V83.22ZM403.641 84.22V77.7993H401.641V84.22H403.641ZM401.903 77.1238C397.811 81.5913 390.497 84.7097 383.027 84.7097V86.7097C390.977 86.7097 398.856 83.4114 403.378 78.4748L401.903 77.1238ZM383.027 84.7097C367.608 84.7097 354.207 71.3106 354.207 54.9995H352.207C352.207 72.3754 366.464 86.7097 383.027 86.7097V84.7097ZM403.757 54.9995C403.757 43.5709 395.492 35.3235 384.387 35.3235V37.3235C394.369 37.3235 401.757 44.6562 401.757 54.9995H403.757ZM384.387 35.3235C373.281 35.3235 365.016 43.5709 365.016 54.9995H367.016C367.016 44.6562 374.405 37.3235 384.387 37.3235V35.3235ZM365.016 54.9995C365.016 66.4293 373.281 74.6767 384.387 74.6767V72.6767C374.405 72.6767 367.016 65.3441 367.016 54.9995H365.016ZM384.387 74.6767C395.492 74.6767 403.757 66.4293 403.757 54.9995H401.757C401.757 65.3441 394.369 72.6767 384.387 72.6767V74.6767ZM431.897 15.6147C428.02 15.6147 424.62 12.387 424.62 8.25045H422.62C422.62 13.5074 426.932 17.6147 431.897 17.6147V15.6147ZM424.62 8.25045C424.62 4.23653 428.011 1 431.897 1V-1C426.941 -1 422.62 3.09839 422.62 8.25045H424.62ZM431.897 1C435.947 1 439.062 4.51759 439.062 8.25045H441.062C441.062 3.50531 437.141 -1 431.897 -1V1ZM439.062 8.25045C439.062 12.1085 435.938 15.6147 431.897 15.6147V17.6147C437.15 17.6147 441.062 13.1033 441.062 8.25045H439.062ZM425.887 85.2191H437.793V83.2191H425.887V85.2191ZM438.793 84.2191V25.7846H436.793V84.2191H438.793ZM437.793 24.7846H425.887V26.7846H437.793V24.7846ZM424.887 25.7846V84.2191H426.887V25.7846H424.887ZM493.331 79.0635V77.8013H491.331V79.0635H493.331ZM491.594 77.1254C487.498 81.5907 480.184 84.7091 472.716 84.7091V86.7091C480.665 86.7091 488.543 83.4107 493.068 78.4772L491.594 77.1254ZM472.716 84.7091C457.295 84.7091 443.894 71.3112 443.894 54.9988H441.894C441.894 72.3761 456.152 86.7091 472.716 86.7091V84.7091ZM443.894 54.9988C443.894 38.6906 457.295 25.2952 472.716 25.2952V23.2952C456.152 23.2952 441.894 37.6253 441.894 54.9988H443.894ZM472.716 25.2952C480.184 25.2952 487.498 28.4098 491.594 32.8761L493.068 31.5245C488.543 26.5893 480.664 23.2952 472.716 23.2952V25.2952ZM493.331 32.2003V25.7836H491.331V32.2003H493.331ZM492.331 26.7836H504.235V24.7836H492.331V26.7836ZM503.235 25.7836V78.9484H505.235V25.7836H503.235ZM503.235 78.9484C503.235 87.8844 500.199 95.3865 495.046 100.65C489.893 105.912 482.563 109 473.849 109V111C483.051 111 490.913 107.729 496.475 102.049C502.035 96.3707 505.235 88.3469 505.235 78.9484H503.235ZM473.849 109C463.567 109 453.991 104.755 447.96 97.6644L446.437 98.9602C452.883 106.539 463.038 111 473.849 111V109ZM447.918 99.0064L456.423 90.1857L454.984 88.7975L446.479 97.6182L447.918 99.0064ZM454.986 90.1882C460.912 96.2919 466.485 98.9709 473.506 98.9709V96.9709C467.146 96.9709 462.064 94.6066 456.421 88.795L454.986 90.1882ZM473.506 98.9709C479.456 98.9709 484.433 97.0007 487.923 93.4746C491.411 89.9498 493.331 84.9555 493.331 79.0635H491.331C491.331 84.5152 489.562 88.9746 486.501 92.0676C483.441 95.1593 479.005 96.9709 473.506 96.9709V98.9709ZM454.704 54.9988C454.704 66.4286 462.971 74.6774 474.074 74.6774V72.6774C464.095 72.6774 456.704 65.3435 456.704 54.9988H454.704ZM474.074 74.6774C485.18 74.6774 493.444 66.4286 493.444 54.9988H491.444C491.444 65.3436 484.056 72.6774 474.074 72.6774V74.6774ZM493.444 54.9988C493.444 43.5729 485.18 35.3242 474.074 35.3242V37.3242C484.056 37.3242 491.444 44.6582 491.444 54.9988H493.444ZM474.074 35.3242C462.971 35.3242 454.704 43.5728 454.704 54.9988H456.704C456.704 44.6583 464.095 37.3242 474.074 37.3242V35.3242ZM518.747 15.6147C514.87 15.6147 511.47 12.387 511.47 8.25045H509.47C509.47 13.5074 513.782 17.6147 518.747 17.6147V15.6147ZM511.47 8.25045C511.47 4.23654 514.861 1 518.747 1V-1C513.791 -1 509.47 3.09838 509.47 8.25045H511.47ZM518.747 1C522.799 1 525.912 4.51736 525.912 8.25045H527.912C527.912 3.50553 523.994 -1 518.747 -1V1ZM525.912 8.25045C525.912 12.1087 522.791 15.6147 518.747 15.6147V17.6147C524.003 17.6147 527.912 13.1031 527.912 8.25045H525.912ZM512.742 85.2191H524.646V83.2191H512.742V85.2191ZM525.646 84.2191V25.7846H523.646V84.2191H525.646ZM524.646 24.7846H512.742V26.7846H524.646V24.7846ZM511.742 25.7846V84.2191H513.742V25.7846H511.742ZM571.836 25.7829V37.2391H573.836V25.7829H571.836ZM572.836 36.2391H554.693V38.2391H572.836V36.2391ZM553.693 37.2391V63.9366H555.693V37.2391H553.693ZM553.693 63.9366C553.693 67.0828 554.735 69.7806 556.599 71.6971C558.464 73.6154 561.085 74.6794 564.104 74.6794V72.6794C561.568 72.6794 559.483 71.7945 558.032 70.3027C556.58 68.8091 555.693 66.6355 555.693 63.9366H553.693ZM564.104 74.6794C567.991 74.6794 572.068 72.9733 574.719 70.7828L573.445 69.2411C571.11 71.1705 567.474 72.6794 564.104 72.6794V74.6794ZM573.279 70.6081L579.743 79.3136L581.349 78.1214L574.885 69.4158L573.279 70.6081ZM579.815 78.0349C576.158 81.9498 570.305 84.7084 563.425 84.7084V86.7084C570.834 86.7084 577.225 83.7383 581.277 79.4001L579.815 78.0349ZM563.425 84.7084C557.49 84.7084 552.602 82.6228 549.195 79.0456C545.784 75.4641 543.785 70.3105 543.785 64.0517H541.785C541.785 70.7401 543.927 76.4148 547.747 80.4249C551.57 84.4393 557.001 86.7084 563.425 86.7084V84.7084ZM543.785 64.0517V37.2391H541.785V64.0517H543.785ZM542.785 36.2391H530.881V38.2391H542.785V36.2391ZM531.881 37.2391V25.7829H529.881V37.2391H531.881ZM530.881 26.7829H542.785V24.7829H530.881V26.7829ZM543.785 25.7829V1.72088H541.785V25.7829H543.785ZM542.785 2.72088H554.693V0.720878H542.785V2.72088ZM553.693 1.72088V25.7829H555.693V1.72088H553.693ZM554.693 26.7829H572.836V24.7829H554.693V26.7829ZM578.146 54.9994C578.146 38.6899 591.551 25.2944 606.969 25.2944V23.2944C590.407 23.2944 576.146 37.6245 576.146 54.9994H578.146ZM606.969 25.2944C614.437 25.2944 621.751 28.4103 625.846 32.8767L627.32 31.5251C622.795 26.59 614.917 23.2944 606.969 23.2944V25.2944ZM627.583 32.2009V25.7842H625.583V32.2009H627.583ZM626.583 26.7842H638.49V24.7842H626.583V26.7842ZM637.49 25.7842V84.22H639.49V25.7842H637.49ZM638.49 83.22H626.583V85.22H638.49V83.22ZM627.583 84.22V77.7993H625.583V84.22H627.583ZM625.846 77.1236C621.751 81.5914 614.436 84.7097 606.969 84.7097V86.7097C614.917 86.7097 622.796 83.4113 627.321 78.475L625.846 77.1236ZM606.969 84.7097C591.551 84.7097 578.146 71.3105 578.146 54.9994H576.146C576.146 72.3755 590.407 86.7097 606.969 86.7097V84.7097ZM627.697 54.9994C627.697 43.5709 619.432 35.3235 608.327 35.3235V37.3235C618.309 37.3235 625.697 44.6561 625.697 54.9994H627.697ZM608.327 35.3235C597.224 35.3235 588.959 43.571 588.959 54.9994H590.959C590.959 44.6561 598.348 37.3235 608.327 37.3235V35.3235ZM588.959 54.9994C588.959 66.4292 597.224 74.6767 608.327 74.6767V72.6767C598.348 72.6767 590.959 65.3442 590.959 54.9994H588.959ZM608.327 74.6767C619.432 74.6767 627.697 66.4293 627.697 54.9994H625.697C625.697 65.3441 618.309 72.6767 608.327 72.6767V74.6767ZM649.26 85.2188H661.166V83.2188H649.26V85.2188ZM662.166 84.2188V1.72229H660.166V84.2188H662.166ZM661.166 0.72229H649.26V2.72229H661.166V0.72229ZM648.26 1.72229V84.2188H650.26V1.72229H648.26ZM729.899 25.7829V37.239H731.899V25.7829H729.899ZM730.899 36.239H712.756V38.239H730.899V36.239ZM711.756 37.239V63.9365H713.756V37.239H711.756ZM711.756 63.9365C711.756 67.0828 712.798 69.7806 714.662 71.6971C716.528 73.6154 719.15 74.6793 722.17 74.6793V72.6793C719.632 72.6793 717.547 71.7944 716.096 70.3026C714.643 68.809 713.756 66.6354 713.756 63.9365H711.756ZM722.17 74.6793C726.054 74.6793 730.131 72.9732 732.782 70.7827L731.508 69.241C729.173 71.1705 725.536 72.6793 722.17 72.6793V74.6793ZM731.342 70.608L737.806 79.3136L739.412 78.1213L732.948 69.4157L731.342 70.608ZM737.878 78.0348C734.221 81.9497 728.368 84.7083 721.488 84.7083V86.7083C728.897 86.7083 735.288 83.7382 739.34 79.4L737.878 78.0348ZM721.488 84.7083C715.553 84.7083 710.665 82.6227 707.258 79.0455C703.847 75.464 701.848 70.3104 701.848 64.0516H699.848C699.848 70.74 701.99 76.4148 705.81 80.4248C709.633 84.4392 715.064 86.7083 721.488 86.7083V84.7083ZM701.848 64.0516V37.239H699.848V64.0516H701.848ZM700.848 36.239H688.944V38.239H700.848V36.239ZM689.944 37.239V25.7829H687.944V37.239H689.944ZM688.944 26.7829H700.848V24.7829H688.944V26.7829ZM701.848 25.7829V1.72085H699.848V25.7829H701.848ZM700.848 2.72085H712.756V0.720847H700.848V2.72085ZM711.756 1.72085V25.7829H713.756V1.72085H711.756ZM712.756 26.7829H730.899V24.7829H712.756V26.7829ZM795.639 59.7309H748.133V61.7309H795.639V59.7309ZM747.174 61.0141C749.579 69.1591 757.032 74.6781 766.951 74.6781V72.6781C757.824 72.6781 751.22 67.6553 749.092 60.4478L747.174 61.0141ZM766.951 74.6781C775.211 74.6781 781.127 71.2072 785.364 66.8095L783.923 65.4219C779.993 69.5022 774.573 72.6781 766.951 72.6781V74.6781ZM783.933 66.819L791.755 74.7267L793.177 73.3202L785.354 65.4124L783.933 66.819ZM791.728 73.3489C785.108 80.5934 775.961 84.7098 766.273 84.7098V86.7098C776.538 86.7098 786.216 82.3455 793.205 74.698L791.728 73.3489ZM766.273 84.7098C749.344 84.7098 736.207 71.7321 736.207 55.3449H734.207C734.207 72.8749 748.278 86.7098 766.273 86.7098V84.7098ZM736.207 55.3449C736.207 38.7092 749.589 25.2933 766.273 25.2933V23.2933C748.484 23.2933 734.207 37.6055 734.207 55.3449H736.207ZM766.273 25.2933C783.441 25.2933 794.979 39.4231 794.979 55.2298H796.979C796.979 38.4951 784.715 23.2933 766.273 23.2933V25.2933ZM794.979 55.2298C794.979 56.7859 794.873 58.3542 794.644 60.6308L796.634 60.8311C796.866 58.5274 796.979 56.8833 796.979 55.2298H794.979ZM747.903 50.8437H783.849V48.8437H747.903V50.8437ZM784.82 49.6068C782.676 40.8135 775.484 34.7521 766.047 34.7521V36.7521C774.521 36.7521 780.942 42.1428 782.877 50.0806L784.82 49.6068ZM766.047 34.7521C756.618 34.7521 749.203 40.7995 746.934 49.5939L748.871 50.0934C750.918 42.1568 757.556 36.7521 766.047 36.7521V34.7521ZM854.98 69.9786C849.828 79.1706 840.301 84.7089 829.776 84.7089V86.7089C841.019 86.7089 851.217 80.7844 856.725 70.9565L854.98 69.9786ZM829.776 84.7089C813.197 84.7089 799.818 71.2854 799.818 54.9986H797.818C797.818 72.3989 812.101 86.7089 829.776 86.7089V84.7089ZM799.818 54.9986C799.818 38.7134 813.197 25.2937 829.776 25.2937V23.2937C812.102 23.2937 797.818 37.5995 797.818 54.9986H799.818ZM829.776 25.2937C839.862 25.2937 848.842 30.2709 854.218 38.6944L855.904 37.6185C850.163 28.6229 840.549 23.2937 829.776 23.2937V25.2937ZM854.463 37.3546L845.392 44.1153L846.588 45.7189L855.658 38.9582L854.463 37.3546ZM846.783 44.3074C842.682 38.9771 837.196 35.3227 830 35.3227V37.3227C836.412 37.3227 841.363 40.5428 845.197 45.5268L846.783 44.3074ZM830 35.3227C819.004 35.3227 810.629 43.8044 810.629 54.9986H812.629C812.629 44.8815 820.136 37.3227 830 37.3227V35.3227ZM810.629 54.9986C810.629 66.194 819.004 74.6786 830 74.6786V72.6786C820.136 72.6786 812.629 65.1174 812.629 54.9986H810.629ZM830 74.6786C836.723 74.6786 842.796 71.3824 847.381 64.7337L845.735 63.5982C841.47 69.7829 835.977 72.6786 830 72.6786V74.6786ZM845.997 64.9936L855.291 71.2952L856.414 69.6398L847.119 63.3382L845.997 64.9936ZM870.159 51.3328V84.2207H872.159V51.3328H870.159ZM871.159 83.2207H859.253V85.2207H871.159V83.2207ZM860.253 84.2207V1.72034H858.253V84.2207H860.253ZM859.253 2.72034H871.159V0.720341H859.253V2.72034ZM870.159 1.72034V31.6275H872.159V1.72034H870.159ZM871.888 32.3131C876.217 27.7155 882.181 25.2926 888.848 25.2926V23.2926C881.68 23.2926 875.172 25.9078 870.432 30.9419L871.888 32.3131ZM888.848 25.2926C895.84 25.2926 901.601 27.9068 905.622 32.3935C909.653 36.8901 912 43.3411 912 51.1065H914C914 42.9426 911.529 35.9867 907.112 31.0586C902.686 26.1207 896.37 23.2926 888.848 23.2926V25.2926ZM912 51.1065V84.2207H914V51.1065H912ZM913 83.2207H901.093V85.2207H913V83.2207ZM902.093 84.2207V51.7919H900.093V84.2207H902.093ZM902.093 51.7919C902.093 46.8398 900.616 42.7115 897.931 39.8112C895.24 36.9037 891.418 35.3216 886.921 35.3216V37.3216C890.931 37.3216 894.195 38.7197 896.464 41.1698C898.738 43.6272 900.093 47.234 900.093 51.7919H902.093ZM886.921 35.3216C877.446 35.3216 870.159 42.4966 870.159 51.3328H872.159C872.159 43.6681 878.482 37.3216 886.921 37.3216V35.3216Z" fill="white" mask="url(#path-1-inside-1)"/>
</svg>
