<svg width="89" height="70" viewBox="0 0 89 70" fill="none" xmlns="http://www.w3.org/2000/svg">
<path fill-rule="evenodd" clip-rule="evenodd" d="M55.8587 12.3316V20.3109C55.8587 26.5487 50.7733 31.6055 44.5 31.6055C38.2268 31.6055 33.1413 26.5487 33.1413 20.3109V12.3316C33.1413 6.0938 38.2268 1.03704 44.5 1.03704C50.7733 1.03704 55.8587 6.0938 55.8587 12.3316ZM32.0984 12.3316C32.0984 5.52106 37.6508 0 44.5 0C51.3493 0 56.9017 5.52106 56.9017 12.3316V20.3109C56.9017 27.1215 51.3493 32.6425 44.5 32.6425C37.6508 32.6425 32.0984 27.1215 32.0984 20.3109V12.3316ZM45.4285 68.6004H43.5716C41.7266 68.6004 39.9328 68.3828 38.2146 67.972C35.3509 67.2874 34.9864 63.6827 36.5473 61.1992C38.351 58.3295 39.3934 54.9382 39.3934 51.3048C39.3934 49.0103 37.5228 47.1503 35.2153 47.1503H22.0344C21.3274 47.1503 20.7397 46.6004 20.7397 45.8974C20.7397 43.5565 22.6481 41.6589 25.0023 41.6589H63.9978C66.352 41.6589 68.2604 43.5565 68.2604 45.8974C68.2604 46.6004 67.6726 47.1503 66.9656 47.1503H53.7847C51.4772 47.1503 49.6066 49.0103 49.6066 51.3048C49.6066 54.9382 50.649 58.3295 52.4527 61.1992C54.0136 63.6827 53.6491 67.2874 50.7854 67.972C49.0673 68.3828 47.2734 68.6004 45.4285 68.6004ZM18.4689 47.1503C19.1542 47.1503 19.6967 46.5789 19.6967 45.8974C19.6967 42.9838 22.0721 40.6218 25.0023 40.6219H63.9978C66.928 40.6219 69.3033 42.9838 69.3033 45.8974C69.3033 46.5789 69.8458 47.1503 70.5312 47.1503H84.8219C87.1294 47.1503 89 49.0103 89 51.3048C89 61.6299 80.5823 70 70.1986 70H68.408C65.2601 70 62.2928 69.2307 59.686 67.8709C58.2261 67.1093 56.4774 67.0118 54.9663 67.6673C52.045 68.9345 48.8193 69.6374 45.4285 69.6374H43.5716C40.1808 69.6374 36.955 68.9345 34.0337 67.6673C32.5226 67.0118 30.774 67.1093 29.314 67.8709C26.7072 69.2307 23.7399 70 20.592 70H18.8014C8.41767 70 0 61.6299 0 51.3048C0 49.0103 1.87059 47.1503 4.17808 47.1503H18.4689ZM25.8867 61.8462C27.8877 64.0387 27.8623 67.692 24.9764 68.4207C23.5741 68.7748 22.1051 68.963 20.592 68.963H18.8014C8.99366 68.963 1.04293 61.0571 1.04293 51.3048C1.04293 49.5831 2.44659 48.1873 4.17808 48.1873H16.0149C18.1649 48.1873 19.9238 49.8275 20.4656 51.8964C21.4502 55.6568 23.3388 59.0545 25.8867 61.8462ZM33.688 63.2313C32.5038 64.5162 30.5335 64.6182 29.1739 63.5184C25.7351 60.737 23.1262 56.9802 21.7735 52.672C21.0378 50.3291 22.9964 48.1873 25.4648 48.1873H35.2153C36.9468 48.1873 38.3504 49.5831 38.3504 51.3048C38.3504 55.9023 36.5835 60.0894 33.688 63.2313ZM68.5345 51.8964C69.0762 49.8275 70.8352 48.1873 72.9852 48.1873H84.8219C86.5534 48.1873 87.9571 49.5831 87.9571 51.3048C87.9571 61.0571 80.0063 68.963 70.1986 68.963H68.408C66.8949 68.963 65.426 68.7748 64.0236 68.4207C61.1377 67.692 61.1124 64.0387 63.1133 61.8462C65.6613 59.0545 67.5498 55.6568 68.5345 51.8964ZM63.5353 48.1873C66.0036 48.1873 67.9622 50.3291 67.2266 52.672C65.8738 56.9802 63.2649 60.737 59.8261 63.5184C58.4665 64.6182 56.4962 64.5162 55.3121 63.2313C52.4165 60.0894 50.6496 55.9023 50.6496 51.3048C50.6496 49.5831 52.0532 48.1873 53.7847 48.1873H63.5353ZM78.1086 30.829V24.3006C78.1086 19.4649 74.1663 15.5449 69.3032 15.5449C64.4401 15.5449 60.4977 19.4649 60.4977 24.3006V30.8291C60.4977 35.6647 64.4401 39.5848 69.3032 39.5848C74.1663 39.5848 78.1086 35.6647 78.1086 30.829ZM69.3032 14.5078C63.8641 14.5078 59.4548 18.8922 59.4548 24.3006V30.8291C59.4548 36.2374 63.8641 40.6218 69.3032 40.6218C74.7422 40.6218 79.1515 36.2374 79.1515 30.829V24.3006C79.1515 18.8922 74.7422 14.5078 69.3032 14.5078ZM28.5022 30.829V24.3006C28.5022 19.4649 24.5599 15.5449 19.6968 15.5449C14.8337 15.5449 10.8914 19.4649 10.8914 24.3006V30.8291C10.8914 35.6647 14.8337 39.5848 19.6968 39.5848C24.5599 39.5848 28.5022 35.6647 28.5022 30.829ZM19.6968 14.5078C14.2577 14.5078 9.84847 18.8922 9.84847 24.3006V30.8291C9.84847 36.2374 14.2577 40.6218 19.6968 40.6218C25.1359 40.6218 29.5452 36.2374 29.5452 30.829V24.3006C29.5452 18.8922 25.1359 14.5078 19.6968 14.5078Z" fill="#010101"/>
</svg>
