<svg width="86" height="80" viewBox="0 0 86 80" fill="none" xmlns="http://www.w3.org/2000/svg">
<g filter="url(#filter0_d)">
<path fill-rule="evenodd" clip-rule="evenodd" d="M40.7059 21.0469C46.2069 21.0469 50.6663 16.5716 50.6663 11.051C50.6663 5.53039 46.2069 1.05507 40.7059 1.05507C35.2049 1.05507 30.7454 5.53039 30.7454 11.051C30.7454 16.5716 35.2049 21.0469 40.7059 21.0469ZM47.0891 26.9258C46.8312 23.7054 47.9852 19.9479 49.8023 17.2809C51.0108 15.5072 51.7176 13.3619 51.7176 11.051C51.7176 4.94769 46.7875 0 40.7059 0C34.6242 0 29.6941 4.94769 29.6941 11.051C29.6941 17.1543 34.6242 22.102 40.7059 22.102C42.7781 22.102 45.0498 22.7327 45.6256 24.7304C45.8775 25.604 46.0267 26.509 46.067 27.4271C46.1369 29.0198 45.8767 30.6019 45.3114 32.076C44.8392 33.3073 43.5919 34.0183 42.6971 34.9848C42.0324 35.7028 41.6235 36.6803 41.6235 37.7575C41.6235 38.2443 41.707 38.7107 41.8599 39.142C41.8958 39.2432 41.7895 39.3439 41.6935 39.2964C41.6369 39.2683 41.5684 39.2917 41.5399 39.3482C40.5314 41.3472 38.9639 43.0089 37.0282 44.1289C35.0595 45.2681 32.7985 45.7958 30.5309 45.6453C28.2634 45.4948 26.0913 44.6729 24.2892 43.2835C22.5449 41.9387 21.2231 40.1206 20.4789 38.0465C20.438 37.9327 20.3143 37.8712 20.2001 37.91C20.054 37.9597 19.9037 37.8456 19.9054 37.6908C19.9057 37.6619 19.9059 37.6331 19.9059 37.6041C19.9059 33.281 16.3452 29.7764 11.9529 29.7764C7.56065 29.7764 4 33.281 4 37.6041C4 41.9273 7.56065 45.4319 11.9529 45.4319C13.514 45.4319 14.97 44.9892 16.1985 44.2244C17.8527 43.1946 22.105 42.93 23.6487 44.1202C25.6157 45.6367 27.9866 46.5338 30.4616 46.6981C32.9366 46.8623 35.4045 46.2863 37.5533 45.043C38.5152 44.4864 39.3938 43.8073 40.1694 43.0268C41.3508 41.8378 43.7739 41.7481 45.4471 41.7481C45.5724 41.7481 45.6859 41.8284 45.717 41.9502C46.1296 43.5628 46.1896 45.247 45.8916 46.8869C45.7947 47.42 45.6607 47.9441 45.4913 48.4556C44.8309 50.4492 42.4935 50.9573 40.4 50.9573C34.9941 50.9573 30.6118 55.4926 30.6118 61.0873C30.6118 66.682 34.9941 71.2174 40.4 71.2174C45.8059 71.2174 50.1883 66.682 50.1883 61.0873C50.1883 59.1351 49.6546 57.3118 48.7301 55.7652C47.2499 53.289 46.4096 49.9169 46.9258 47.0762C47.2595 45.2402 47.1821 43.3532 46.6998 41.5519C46.6966 41.5401 46.703 41.5279 46.7144 41.5237C46.7255 41.5196 46.7379 41.5245 46.7433 41.5351C47.5934 43.2109 48.7794 44.6937 50.228 45.8898C51.7505 47.147 53.5269 48.0574 55.4343 48.5583C57.3418 49.0591 59.3348 49.1385 61.2758 48.7908C64.1607 48.274 67.7987 49.4851 70.7204 49.713C70.8592 49.7239 70.9995 49.7294 71.1411 49.7294C74.0975 49.7294 76.4941 47.3242 76.4941 44.3574C76.4941 41.3905 74.0975 38.9854 71.1411 38.9854C68.1848 38.9854 65.7882 41.3905 65.7882 44.3574C65.7882 45.2021 65.5117 46.0847 64.7679 46.4802C63.6182 47.0916 62.3781 47.5216 61.0911 47.7521C59.2999 48.073 57.4607 47.9998 55.7005 47.5376C53.9403 47.0754 52.301 46.2352 50.896 45.0751C49.973 44.313 49.1656 43.4249 48.496 42.439C47.9591 41.6486 48.2731 40.6134 48.7432 39.7812C48.9708 39.3782 49.1325 38.9299 49.2128 38.4523C49.2344 38.3242 49.3381 38.2238 49.4673 38.2154C49.6148 38.2058 49.7262 38.078 49.7201 37.9299C49.6295 35.7445 50.1601 33.5762 51.2528 31.6794C52.3902 29.705 54.0854 28.1134 56.1242 27.106C58.1629 26.0985 60.4535 25.7203 62.7063 26.0193C64.8719 26.3067 66.9091 27.2074 68.5805 28.6132C68.6922 28.7072 68.8588 28.6966 68.9549 28.5867C69.047 28.4815 69.2044 28.4667 69.3173 28.549C70.6392 29.513 72.2755 30.0832 74.0471 30.0832C78.4393 30.0832 82 26.5786 82 22.2554C82 17.9322 78.4393 14.4276 74.0471 14.4276C69.6548 14.4276 66.0941 17.9322 66.0941 22.2554C66.0941 23.3971 64.2867 25.1986 63.1631 25.0199C63.0571 25.003 62.9508 24.9875 62.8442 24.9734C60.3852 24.647 57.885 25.0598 55.6597 26.1594C53.4345 27.2591 51.5841 28.9963 50.3427 31.1513C49.9461 31.8397 49.6174 32.5608 49.3588 33.3045C49.0931 34.0687 47.6852 34.4149 46.9482 34.0862C46.3966 33.8402 46.009 33.1697 46.2331 32.6072C46.8913 30.9551 47.196 29.174 47.1173 27.3807C47.1106 27.2287 47.1012 27.0771 47.0891 26.9258ZM74.0471 29.0281C77.8781 29.0281 80.9487 25.9767 80.9487 22.2554C80.9487 18.5342 77.8781 15.4827 74.0471 15.4827C70.2161 15.4827 67.1454 18.5342 67.1454 22.2554C67.1454 25.9767 70.2161 29.0281 74.0471 29.0281ZM75.4427 44.3574C75.4427 46.7415 73.5168 48.6743 71.1411 48.6743C68.7654 48.6743 66.8395 46.7415 66.8395 44.3574C66.8395 41.9732 68.7654 40.0404 71.1411 40.0404C73.5168 40.0404 75.4427 41.9732 75.4427 44.3574ZM40.4 70.1623C45.195 70.1623 49.1369 66.1301 49.1369 61.0873C49.1369 56.0445 45.195 52.0123 40.4 52.0123C35.605 52.0123 31.6631 56.0445 31.6631 61.0873C31.6631 66.1301 35.605 70.1623 40.4 70.1623ZM48.2193 37.7575C48.2193 39.4181 46.9396 40.6931 45.4471 40.6931C43.9545 40.6931 42.6749 39.4181 42.6749 37.7575C42.6749 36.0968 43.9545 34.8219 45.4471 34.8219C46.9396 34.8219 48.2193 36.0968 48.2193 37.7575ZM11.9529 44.3768C15.7839 44.3768 18.8546 41.3254 18.8546 37.6041C18.8546 33.8829 15.7839 30.8314 11.9529 30.8314C8.12195 30.8314 5.05133 33.8829 5.05133 37.6041C5.05133 41.3254 8.12195 44.3768 11.9529 44.3768Z" fill="#010101"/>
<path fill-rule="evenodd" clip-rule="evenodd" d="M40.7059 22.102C34.6242 22.102 29.6941 17.1543 29.6941 11.051C29.6941 4.94769 34.6242 0 40.7059 0C46.7875 0 51.7176 4.94769 51.7176 11.051C51.7176 13.3619 51.0108 15.5072 49.8023 17.2809C47.9852 19.9479 46.8312 23.7054 47.0891 26.9258C47.09 26.9368 47.0909 26.9478 47.0917 26.9588C47.1026 27.0991 47.1111 27.2397 47.1173 27.3807C47.1936 29.1191 46.9096 30.846 46.2926 32.455C46.2731 32.5058 46.2532 32.5566 46.2331 32.6072C46.009 33.1697 46.3966 33.8402 46.9482 34.0862C47.6846 34.4146 49.091 34.0693 49.3582 33.3063C49.3584 33.3057 49.3586 33.3051 49.3588 33.3045C49.3744 33.2598 49.3902 33.2152 49.4062 33.1706C49.6571 32.4742 49.9699 31.7983 50.3427 31.1513C50.4978 30.8819 50.6625 30.6191 50.8363 30.3632C52.0526 28.5719 53.7126 27.1216 55.6597 26.1594C57.885 25.0598 60.3852 24.647 62.8442 24.9734C62.8534 24.9746 62.8626 24.9758 62.8719 24.9771C62.9692 24.9902 63.0663 25.0045 63.1631 25.0199C64.2867 25.1986 66.0941 23.3971 66.0941 22.2554C66.0941 19.3926 67.6557 16.8881 69.9868 15.5232C70.0254 15.5006 70.0642 15.4783 70.1031 15.4564C71.2654 14.8018 72.6118 14.4276 74.0471 14.4276C78.4403 14.4276 82 17.9331 82 22.2554C82 26.5777 78.4403 30.0832 74.0471 30.0832C72.2753 30.0832 70.6391 29.513 69.3173 28.549C69.3164 28.5484 69.3155 28.5477 69.3146 28.5471C69.202 28.467 69.0462 28.4823 68.9549 28.5867C68.8588 28.6966 68.6922 28.7072 68.5805 28.6132C66.9851 27.2713 65.0564 26.3897 63.0008 26.0623C63.0001 26.0622 62.9993 26.0621 62.9986 26.0619C62.9014 26.0465 62.804 26.0323 62.7063 26.0193C62.4247 25.9819 62.1425 25.9552 61.8603 25.9388C59.8848 25.8247 57.908 26.2244 56.1242 27.106C54.0854 28.1134 52.3902 29.705 51.2528 31.6794C51.25 31.6843 51.2472 31.6892 51.2443 31.6941C50.8848 32.3204 50.5865 32.9761 50.3515 33.6521C49.8759 35.02 49.6596 36.4711 49.7201 37.9299C49.7262 38.078 49.6148 38.2058 49.4673 38.2154C49.34 38.2237 49.2374 38.3212 49.2138 38.4467C49.2135 38.4486 49.2131 38.4504 49.2128 38.4523C49.1325 38.9299 48.9708 39.3782 48.7432 39.7812C48.739 39.7886 48.7348 39.796 48.7307 39.8035C48.2681 40.6309 47.9645 41.6534 48.4942 42.4365C48.4948 42.4373 48.4954 42.4382 48.496 42.439C48.4988 42.4432 48.5016 42.4473 48.5044 42.4515C49.1724 43.4323 49.9769 44.3162 50.896 45.0751C52.301 46.2352 53.9403 47.0754 55.7005 47.5376C55.9205 47.5953 56.1418 47.647 56.364 47.6926C57.9198 48.0119 59.5238 48.0329 61.0911 47.7521C62.3781 47.5216 63.6182 47.0916 64.7679 46.4802C65.5117 46.0847 65.7882 45.2021 65.7882 44.3574C65.7882 41.3905 68.1848 38.9854 71.1411 38.9854C74.0975 38.9854 76.4941 41.3905 76.4941 44.3574C76.4941 47.3242 74.0975 49.7294 71.1411 49.7294C70.9995 49.7294 70.8592 49.7239 70.7204 49.713C69.7003 49.6334 68.5929 49.434 67.4608 49.2301C65.3502 48.85 63.1535 48.4544 61.2758 48.7908C59.3348 49.1385 57.3418 49.0591 55.4343 48.5583C55.3151 48.527 55.1964 48.4941 55.0783 48.4596C53.3059 47.9423 51.6554 47.0684 50.228 45.8898C50.2202 45.8834 50.2124 45.8769 50.2046 45.8704C49.4381 45.2347 48.7456 44.5185 48.1379 43.7359C47.9604 43.5073 47.7901 43.2729 47.6273 43.0333C47.6268 43.0326 47.6264 43.032 47.6259 43.0313C47.4934 42.8361 47.3658 42.6373 47.2433 42.4352C47.0666 42.1434 46.9005 41.8447 46.7456 41.5395C46.7448 41.5381 46.7441 41.5366 46.7433 41.5351C46.738 41.5245 46.7255 41.5196 46.7144 41.5237C46.703 41.5279 46.6966 41.5401 46.6998 41.5519C46.7002 41.5535 46.7006 41.5551 46.701 41.5567C46.7125 41.5994 46.7237 41.6422 46.7346 41.6851C46.7349 41.686 46.7351 41.6869 46.7353 41.6878C46.809 41.9757 46.8723 42.2656 46.9254 42.5571C47.0197 43.0752 47.0813 43.5982 47.1102 44.123C47.1645 45.1081 47.1034 46.0994 46.9258 47.0762C46.4107 49.9106 47.2462 53.274 48.7202 55.7486C48.7235 55.7541 48.7268 55.7596 48.7301 55.7652C49.2406 56.6191 49.6319 57.5575 49.88 58.5553C50.0813 59.3646 50.1883 60.213 50.1883 61.0873C50.1883 62.0682 50.0536 63.0164 49.8023 63.9133C49.5161 64.9353 49.0785 65.8906 48.5163 66.7516C46.7571 69.4462 43.7781 71.2174 40.4 71.2174C37.0167 71.2174 34.0335 69.4406 32.2754 66.7388C31.576 65.6641 31.0705 64.443 30.8107 63.1292C30.6803 62.4697 30.6118 61.7868 30.6118 61.0873C30.6118 55.4915 34.9952 50.9573 40.4 50.9573C42.4935 50.9573 44.8309 50.4492 45.4913 48.4556C45.6601 47.9462 45.7936 47.4242 45.8904 46.8933C45.8908 46.8912 45.8912 46.889 45.8916 46.8869C46.1896 45.247 46.1296 43.5628 45.717 41.9502C45.6859 41.8284 45.5724 41.7481 45.4471 41.7481C43.7739 41.7481 41.3508 41.8378 40.1694 43.0268C40.1391 43.0572 40.1087 43.0875 40.0782 43.1176C39.3251 43.8601 38.4777 44.5081 37.5533 45.043C37.2847 45.1984 37.0112 45.3434 36.7332 45.4778C34.7874 46.4188 32.6272 46.8418 30.4616 46.6981C27.9866 46.5338 25.6157 45.6367 23.6487 44.1202C22.1078 42.9322 17.8679 43.1936 16.2074 44.2189C16.2044 44.2207 16.2015 44.2226 16.1985 44.2244C16.1583 44.2494 16.1179 44.2741 16.0772 44.2984C15.9338 44.3843 15.7873 44.4657 15.6381 44.5427C15.3893 44.6709 15.1328 44.7866 14.8695 44.8888C14.8222 44.9072 14.7747 44.9251 14.727 44.9426C14.7139 44.9474 14.7009 44.9521 14.6878 44.9568C13.8351 45.2642 12.914 45.4319 11.9529 45.4319C7.55975 45.4319 4 41.9264 4 37.6041C4 33.2819 7.55975 29.7764 11.9529 29.7764C16.1073 29.7764 19.5163 32.911 19.8747 36.9067C19.8763 36.9244 19.8779 36.9421 19.8793 36.9599C19.8969 37.1723 19.9059 37.3872 19.9059 37.6041C19.9059 37.6281 19.9058 37.6521 19.9056 37.676C19.9055 37.681 19.9055 37.6859 19.9054 37.6908C19.9037 37.8456 20.054 37.9597 20.2001 37.91C20.3143 37.8712 20.438 37.9327 20.4789 38.0465C21.2228 40.1196 22.5436 41.937 24.2867 43.2816C24.2876 43.2823 24.2884 43.2829 24.2892 43.2835C24.5145 43.4572 24.7455 43.622 24.9818 43.7777C26.6358 44.8679 28.5468 45.5136 30.5309 45.6453C32.7985 45.7958 35.0595 45.2681 37.0282 44.1289C37.0833 44.0971 37.1381 44.0648 37.1925 44.032C38.0097 43.5409 38.7587 42.9522 39.4249 42.2818C40.2753 41.426 40.9905 40.4372 41.5399 39.3482C41.5684 39.2917 41.6369 39.2683 41.6935 39.2964C41.7877 39.3431 41.8919 39.2468 41.8617 39.1475C41.8612 39.1457 41.8606 39.1438 41.8599 39.142C41.8471 39.1059 41.8348 39.0697 41.823 39.0331C41.7427 38.7846 41.6853 38.525 41.6532 38.2573C41.6521 38.2479 41.651 38.2384 41.6499 38.229C41.6476 38.2081 41.6454 38.1872 41.6433 38.1662C41.6302 38.0319 41.6235 37.8955 41.6235 37.7575C41.6235 37.5998 41.6323 37.4443 41.6493 37.2914C41.7487 36.3989 42.13 35.5972 42.6971 34.9848C42.7004 34.9813 42.7036 34.9778 42.7069 34.9743C42.9907 34.6692 43.3095 34.3893 43.6274 34.1101C44.3097 33.5109 44.9883 32.9151 45.31 32.0797C45.3105 32.0785 45.3109 32.0773 45.3114 32.076C45.3664 31.9325 45.4186 31.788 45.4678 31.6425C45.9242 30.2938 46.1301 28.8647 46.067 27.4271C46.0609 27.2879 46.0523 27.1489 46.0412 27.0104C45.9791 26.2352 45.8393 25.4715 45.6256 24.7304C45.0498 22.7327 42.7781 22.102 40.7059 22.102ZM46.2249 23.4823C46.4303 22.2859 46.7703 21.0939 47.2159 19.9649C46.2375 20.6858 45.136 21.2483 43.949 21.6149C44.0199 21.6438 44.0901 21.674 44.1596 21.7055C44.9791 22.0768 45.731 22.6496 46.2249 23.4823ZM50.6589 11.4413C50.4545 16.781 46.0766 21.0469 40.7059 21.0469C35.2049 21.0469 30.7454 16.5716 30.7454 11.051C30.7454 5.53039 35.2049 1.05507 40.7059 1.05507C46.2069 1.05507 50.6663 5.53039 50.6663 11.051C50.6663 11.1817 50.6638 11.3118 50.6589 11.4413ZM43.4838 35.6852C43.4783 35.6911 43.4728 35.697 43.4672 35.7029C42.9805 36.2264 42.6749 36.9459 42.6749 37.7575C42.6749 38.1231 42.7369 38.47 42.8495 38.7887C42.854 38.8014 42.8586 38.8141 42.8633 38.8267C43.2719 39.9351 44.2962 40.6931 45.4471 40.6931C46.4185 40.6931 47.2997 40.153 47.7967 39.318C47.8078 39.2993 47.8188 39.2804 47.8295 39.2614C47.9971 38.9651 48.117 38.6333 48.1765 38.2767C48.1779 38.2686 48.1792 38.2606 48.1805 38.2524C48.206 38.0921 48.2193 37.9268 48.2193 37.7575C48.2193 36.0968 46.9396 34.8219 45.4471 34.8219C44.6922 34.8219 43.9918 35.148 43.4838 35.6852ZM48.7696 35.7811C48.8034 35.5282 48.8447 35.2765 48.8936 35.0264C48.8016 35.0621 48.712 35.0923 48.6271 35.1173C48.544 35.1419 48.4576 35.164 48.3688 35.1832C48.5191 35.3687 48.6534 35.5688 48.7696 35.7811ZM42.9944 40.819C42.7734 40.626 42.5736 40.4074 42.3992 40.1676C42.3513 40.2017 42.3009 40.2322 42.2483 40.2587C42.0992 40.5275 41.9407 40.7902 41.7732 41.0464C41.9983 40.9885 42.2223 40.9415 42.4405 40.9027C42.6244 40.87 42.8095 40.8424 42.9944 40.819ZM21.807 42.3769C20.9628 41.3981 20.2719 40.292 19.7615 39.0965C19.5156 40.3502 18.9658 41.4974 18.1904 42.4609C18.7654 42.3612 19.3596 42.3033 19.932 42.2852C20.5615 42.2654 21.2017 42.2923 21.807 42.3769ZM15.6837 43.3036C17.5954 42.0954 18.8546 39.9871 18.8546 37.6041C18.8546 33.8829 15.7839 30.8314 11.9529 30.8314C8.12195 30.8314 5.05133 33.8829 5.05133 37.6041C5.05133 41.3254 8.12195 44.3768 11.9529 44.3768C12.1697 44.3768 12.3841 44.3671 12.5956 44.3479C13.7119 44.2471 14.7487 43.886 15.6445 43.3282C15.6576 43.3201 15.6707 43.3119 15.6837 43.3036ZM45.7824 50.0797C45.2673 50.7084 44.5909 51.143 43.8766 51.4324C43.7973 51.4646 43.7171 51.4951 43.6362 51.5241C44.6414 51.8883 45.5716 52.4176 46.3968 53.0804C46.0932 52.108 45.8803 51.0936 45.7824 50.0797ZM47.782 56.2293C46.2273 53.6878 43.4909 52.0123 40.4 52.0123C35.605 52.0123 31.6631 56.0445 31.6631 61.0873C31.6631 66.1301 35.605 70.1623 40.4 70.1623C45.195 70.1623 49.1369 66.1301 49.1369 61.0873C49.1369 60.9191 49.1325 60.7521 49.1239 60.5862C49.042 59.0178 48.5782 57.5599 47.8292 56.3075C47.8136 56.2814 47.7978 56.2553 47.782 56.2293ZM64.6461 47.7194C65.1555 47.7764 65.6604 47.8509 66.153 47.9312C66.5576 47.9972 66.9515 48.0665 67.3355 48.1353C66.8798 47.6729 66.5071 47.128 66.2417 46.5248C66.0065 46.8748 65.6873 47.1853 65.2601 47.4125C65.058 47.52 64.8532 47.6223 64.6461 47.7194ZM70.9282 48.6691C70.9987 48.6726 71.0696 48.6743 71.1411 48.6743C73.5168 48.6743 75.4427 46.7415 75.4427 44.3574C75.4427 41.9732 73.5168 40.0404 71.1411 40.0404C68.7654 40.0404 66.8395 41.9732 66.8395 44.3574C66.8395 46.6699 68.6514 48.5577 70.9282 48.6691ZM69.9126 27.6793C69.9201 27.6848 69.9276 27.6903 69.9351 27.6958C70.938 28.4275 72.1515 28.8988 73.4742 29.0052C73.6631 29.0204 73.8541 29.0281 74.0471 29.0281C77.8781 29.0281 80.9487 25.9767 80.9487 22.2554C80.9487 18.5342 77.8781 15.4827 74.0471 15.4827C70.2161 15.4827 67.1454 18.5342 67.1454 22.2554C67.1454 24.4663 68.2293 26.4408 69.9126 27.6793Z" fill="#010101"/>
</g>
<defs>
<filter id="filter0_d" x="0" y="0" width="86" height="79.2174" filterUnits="userSpaceOnUse" color-interpolation-filters="sRGB">
<feFlood flood-opacity="0" result="BackgroundImageFix"/>
<feColorMatrix in="SourceAlpha" type="matrix" values="0 0 0 0 0 0 0 0 0 0 0 0 0 0 0 0 0 0 127 0"/>
<feOffset dy="4"/>
<feGaussianBlur stdDeviation="2"/>
<feColorMatrix type="matrix" values="0 0 0 0 0 0 0 0 0 0 0 0 0 0 0 0 0 0 0.25 0"/>
<feBlend mode="normal" in2="BackgroundImageFix" result="effect1_dropShadow"/>
<feBlend mode="normal" in="SourceGraphic" in2="effect1_dropShadow" result="shape"/>
</filter>
</defs>
</svg>
