<svg width="117" height="17" viewBox="0 0 117 17" fill="none" xmlns="http://www.w3.org/2000/svg">
<mask id="mask0" mask-type="alpha" maskUnits="userSpaceOnUse" x="0" y="0" width="10" height="9">
<path d="M0.44751 0H9.05972V8.4999H0.44751V0Z" fill="white"/>
</mask>
<g mask="url(#mask0)">
<path fill-rule="evenodd" clip-rule="evenodd" d="M9.05972 4.24961C9.05972 6.59687 7.13169 8.49941 4.75367 8.49941C2.37533 8.49941 0.44751 6.59687 0.44751 4.24961C0.44751 1.90235 2.37533 -0.000488281 4.75367 -0.000488281C7.13169 -0.000488281 9.05972 1.90235 9.05972 4.24961Z" fill="#FC2B4A"/>
</g>
<mask id="mask1" mask-type="alpha" maskUnits="userSpaceOnUse" x="9" y="0" width="9" height="9">
<path d="M9.05957 0H17.672V8.4999H9.05957V0Z" fill="white"/>
</mask>
<g mask="url(#mask1)">
<path fill-rule="evenodd" clip-rule="evenodd" d="M17.6725 4.24961C17.6725 6.59687 15.7444 8.49941 13.3662 8.49941C10.9881 8.49941 9.06006 6.59687 9.06006 4.24961C9.06006 1.90235 10.9881 -0.000488281 13.3662 -0.000488281C15.7444 -0.000488281 17.6725 1.90235 17.6725 4.24961Z" fill="#FC2B4A"/>
</g>
<mask id="mask2" mask-type="alpha" maskUnits="userSpaceOnUse" x="0" y="8" width="10" height="9">
<path d="M0.44751 8.49976H9.05972V17H0.44751V8.49976Z" fill="white"/>
</mask>
<g mask="url(#mask2)">
<path fill-rule="evenodd" clip-rule="evenodd" d="M9.05972 12.7496C9.05972 15.0969 7.13169 16.9998 4.75367 16.9998C2.37533 16.9998 0.44751 15.0969 0.44751 12.7496C0.44751 10.4024 2.37533 8.49951 4.75367 8.49951C7.13169 8.49951 9.05972 10.4024 9.05972 12.7496Z" fill="#FC2B4A"/>
</g>
<mask id="mask3" mask-type="alpha" maskUnits="userSpaceOnUse" x="9" y="8" width="9" height="9">
<path d="M9.05957 8.49976H17.672V17H9.05957V8.49976Z" fill="white"/>
</mask>
<g mask="url(#mask3)">
<path fill-rule="evenodd" clip-rule="evenodd" d="M17.6725 12.7496C17.6725 15.0969 15.7444 16.9998 13.3662 16.9998C10.9881 16.9998 9.06006 15.0969 9.06006 12.7496C9.06006 10.4024 10.9881 8.49951 13.3662 8.49951C15.7444 8.49951 17.6725 10.4024 17.6725 12.7496Z" fill="#FC2B4A"/>
</g>
<path fill-rule="evenodd" clip-rule="evenodd" d="M25.9798 8.19408V11.5705H24.7827V5.67342H25.9798V6.21694C26.3905 5.76608 26.9831 5.52309 27.6218 5.52309C28.3743 5.52309 29.0014 5.85833 29.4236 6.4367C29.9022 5.86995 30.6207 5.52309 31.4417 5.52309C32.9127 5.52309 33.8936 6.62147 33.8936 8.19408V11.5705H32.6963V8.2404C32.6963 7.33842 32.1717 6.73722 31.3735 6.73722C30.5637 6.73722 29.9368 7.36151 29.9368 8.19408V11.5705H28.7393V8.2404C28.7393 7.33842 28.2147 6.73722 27.4166 6.73722C26.607 6.73722 25.9798 7.36151 25.9798 8.19408ZM34.2925 8.62185C34.2925 6.92201 35.6835 5.52311 37.2916 5.52311C38.0667 5.52311 38.8306 5.84687 39.2641 6.32096V5.67344H40.4615V11.5703H39.2641V10.9227C38.8306 11.3968 38.0667 11.7206 37.2916 11.7206C35.6835 11.7206 34.2925 10.3217 34.2925 8.62185ZM39.2755 8.62185C39.2755 7.52347 38.4884 6.73737 37.4284 6.73737C36.3681 6.73737 35.581 7.52347 35.581 8.62185C35.581 9.72023 36.3681 10.5067 37.4284 10.5067C38.4884 10.5067 39.2755 9.72023 39.2755 8.62185ZM42.1487 4.74833C41.7043 4.74833 41.3166 4.37851 41.3166 3.90455C41.3166 3.4418 41.7043 3.07172 42.1487 3.07172C42.6162 3.07172 42.97 3.47652 42.97 3.90455C42.97 4.34379 42.6162 4.74833 42.1487 4.74833ZM41.5447 11.5704H42.7419V5.67354H41.5447V11.5704Z" fill="white"/>
<path fill-rule="evenodd" clip-rule="evenodd" d="M43.6542 11.5703H44.8514V3.24537H43.6542V11.5703Z" fill="white"/>
<path fill-rule="evenodd" clip-rule="evenodd" d="M46.4818 11.7438C46.0371 11.7438 45.6497 11.3737 45.6497 10.8998C45.6497 10.4373 46.0371 10.0672 46.4818 10.0672C46.9496 10.0672 47.3031 10.472 47.3031 10.8998C47.3031 11.3393 46.9496 11.7438 46.4818 11.7438ZM49.4695 8.66819V11.5703H48.2722V5.67345H49.4695V6.48278C49.9139 5.91643 50.4385 5.67345 51.2938 5.67345H51.7499V6.82964H51.2938C50.1878 6.82964 49.4695 7.5582 49.4695 8.66819ZM56.5847 8.99187V5.67337H57.7815V11.5705H56.5847V10.9806C56.1286 11.4663 55.5015 11.7208 54.8056 11.7208C53.3462 11.7208 52.3768 10.6224 52.3768 9.0151V5.67337H53.5741V8.94581C53.5741 9.90548 54.1441 10.5067 54.9994 10.5067C55.9001 10.5067 56.5847 9.8247 56.5847 8.99187ZM60.7049 8.5386C60.7049 6.83902 62.0957 5.44011 63.7038 5.44011C64.4792 5.44011 65.2431 5.76361 65.6763 6.23797V3.16205H66.8736V11.4873H65.6763V10.8394C65.2431 11.3138 64.4792 11.6376 63.7038 11.6376C62.0957 11.6376 60.7049 10.2383 60.7049 8.5386ZM65.688 8.5386C65.688 7.44008 64.9009 6.65398 63.8406 6.65398C62.7803 6.65398 61.9932 7.44008 61.9932 8.5386C61.9932 9.63724 62.7803 10.4233 63.8406 10.4233C64.9009 10.4233 65.688 9.63724 65.688 8.5386ZM68.6184 4.66514C68.1738 4.66514 67.786 4.29505 67.786 3.82109C67.786 3.35861 68.1738 2.98853 68.6184 2.98853C69.0857 2.98853 69.4395 3.39333 69.4395 3.82109C69.4395 4.2606 69.0857 4.66514 68.6184 4.66514ZM68.014 11.4872H69.2113V5.59049H68.014V11.4872ZM74.6959 10.9669V10.8396C74.2624 11.3138 73.4985 11.6375 72.7234 11.6375C71.1151 11.6375 69.7243 10.2384 69.7243 8.53853C69.7243 6.83909 71.1151 5.44018 72.7234 5.44018C73.4985 5.44018 74.2624 5.76354 74.6959 6.2379V5.59038H75.893V10.9553C75.893 12.8055 74.639 14.0888 72.8372 14.0888C71.7767 14.0888 70.7846 13.6495 70.1572 12.9094L71.0125 12.0192C71.5942 12.6204 72.1299 12.8749 72.8027 12.8749C73.9542 12.8749 74.6959 12.1116 74.6959 10.9669ZM71.0125 8.53853C71.0125 9.63718 71.7998 10.4234 72.8599 10.4234C73.9202 10.4234 74.7073 9.63718 74.7073 8.53853C74.7073 7.44028 73.9202 6.65405 72.8599 6.65405C71.7998 6.65405 71.0125 7.44028 71.0125 8.53853ZM77.3524 4.66514C76.9078 4.66514 76.52 4.29505 76.52 3.82109C76.52 3.35861 76.9078 2.98853 77.3524 2.98853C77.82 2.98853 78.1735 3.39333 78.1735 3.82109C78.1735 4.2606 77.82 4.66514 77.3524 4.66514ZM76.7485 11.4872H77.9456V5.59049H76.7485V11.4872ZM82.7918 5.59031V6.74637H80.9673V9.44045C80.9673 10.0303 81.355 10.4236 81.9137 10.4236C82.2786 10.4236 82.6664 10.2614 82.9171 10.0535L83.5672 10.932C83.1796 11.3484 82.5639 11.6375 81.8454 11.6375C80.6026 11.6375 79.7698 10.7586 79.7698 9.45206V6.74637H78.5727V5.59031H79.7698V3.16218H80.9673V5.59031H82.7918Z" fill="white"/>
<path fill-rule="evenodd" clip-rule="evenodd" d="M83.2253 8.53859C83.2253 6.83902 84.6163 5.44011 86.2244 5.44011C86.9995 5.44011 87.7634 5.7636 88.1969 6.23796V5.59044H89.3943V11.4873H88.1969V10.8394C87.7634 11.3138 86.9995 11.6376 86.2244 11.6376C84.6163 11.6376 83.2253 10.2383 83.2253 8.53859ZM88.2083 8.53859C88.2083 7.44008 87.4212 6.65398 86.3609 6.65398C85.3009 6.65398 84.5138 7.44008 84.5138 8.53859C84.5138 9.63724 85.3009 10.4233 86.3609 10.4233C87.4212 10.4233 88.2083 9.63724 88.2083 8.53859Z" fill="white"/>
<path fill-rule="evenodd" clip-rule="evenodd" d="M90.4773 11.4872H91.6747V3.16232H90.4773V11.4872Z" fill="white"/>
<path fill-rule="evenodd" clip-rule="evenodd" d="M98.6873 5.59031V6.74636H96.8628V9.44044C96.8628 10.0303 97.2505 10.4236 97.8095 10.4236C98.174 10.4236 98.5619 10.2614 98.8126 10.0535L99.4627 10.932C99.075 11.3484 98.4594 11.6375 97.7409 11.6375C96.4981 11.6375 95.6653 10.7586 95.6653 9.45206V6.74636H94.4682V5.59031H95.6653V3.16218H96.8628V5.59031H98.6873Z" fill="white"/>
<path fill-rule="evenodd" clip-rule="evenodd" d="M105.198 9.11697H100.42C100.648 9.89159 101.355 10.4235 102.313 10.4235C103.111 10.4235 103.681 10.0881 104.092 9.66035L104.879 10.4583C104.195 11.2097 103.248 11.6376 102.245 11.6376C100.489 11.6376 99.1205 10.2848 99.1205 8.57345C99.1205 6.83903 100.511 5.43999 102.245 5.43999C104.035 5.43999 105.232 6.91994 105.232 8.56184C105.232 8.72378 105.221 8.88586 105.198 9.11697ZM100.397 8.01832H104.012C103.807 7.17414 103.123 6.59632 102.222 6.59632C101.321 6.59632 100.614 7.17414 100.397 8.01832ZM111.253 10.0995C110.717 11.0592 109.725 11.6375 108.631 11.6375C106.908 11.6375 105.518 10.2382 105.518 8.53851C105.518 6.83894 106.908 5.44003 108.631 5.44003C109.68 5.44003 110.615 5.96005 111.174 6.83894L110.261 7.52117C109.862 7.00075 109.338 6.6539 108.653 6.6539C107.604 6.6539 106.806 7.46323 106.806 8.53851C106.806 9.61393 107.604 10.4235 108.653 10.4235C109.292 10.4235 109.873 10.1111 110.318 9.4636L111.253 10.0995ZM112.793 8.16858V11.4874H111.595V3.16213H112.793V6.1801C113.249 5.69413 113.876 5.43993 114.571 5.43993C116.031 5.43993 117 6.53831 117 8.14575V11.4874H115.803V8.21491C115.803 7.25525 115.233 6.65379 114.378 6.65379C113.477 6.65379 112.793 7.33602 112.793 8.16858Z" fill="white"/>
</svg>
