<svg width="72" height="71" viewBox="0 0 72 71" fill="none" xmlns="http://www.w3.org/2000/svg">
<path fill-rule="evenodd" clip-rule="evenodd" d="M53.8372 0.424527H23.3381C23.1042 0.424527 22.9146 0.614594 22.9146 0.849054V7.6646C22.9146 7.69576 22.9399 7.72095 22.971 7.72084C23.0019 7.72072 23.027 7.74587 23.027 7.77687V8.08871C23.027 8.11994 23.0018 8.14525 22.9706 8.14537C22.9396 8.14549 22.9146 8.17075 22.9146 8.20181V14.6224C22.9146 14.8568 23.1042 15.0469 23.3381 15.0469H53.8372C54.0711 15.0469 54.2607 14.8568 54.2607 14.6224V0.849054C54.2607 0.614594 54.0711 0.424527 53.8372 0.424527ZM18.1895 8.94683C20.4602 8.1732 22.4911 10.1503 22.4911 12.5542V14.6224C22.4911 15.0913 22.8703 15.4714 23.3381 15.4714H53.8372C54.305 15.4714 54.6842 15.0913 54.6842 14.6224V10.2201C54.6842 8.74503 55.5293 7.13669 56.9594 7.48452C56.9914 7.49229 57.0233 7.50054 57.0552 7.50927C57.9067 7.74212 58.7759 8.32194 59.6076 9.18617C61.271 10.9147 62.7402 13.7356 63.5781 16.9663C65.2562 23.4362 64.3774 31.4153 57.6569 35.4642L57.6526 35.4668L57.6483 35.4696C56.4754 36.2552 55.2047 36.867 53.8755 37.293C51.6134 38.018 49.6216 36.0479 49.6216 33.6675V26.9869C49.6216 26.518 49.2424 26.1378 48.7746 26.1378H11.7608C9.73873 26.1378 7.93243 24.6948 8.00529 22.6693C8.06953 20.8837 8.45047 19.1143 9.13974 17.4463C10.2774 14.6932 12.2041 12.3401 14.676 10.6845C15.7724 9.95015 16.9543 9.36768 18.1895 8.94683ZM54.6842 0.849054V4.79396C54.6842 5.95933 56.045 6.793 57.1667 7.09971C58.1162 7.35934 59.0486 7.9938 59.9124 8.89144C61.64 10.6866 63.1374 13.5798 63.988 16.8595C65.6868 23.409 64.8313 31.6339 57.8794 35.8254C56.5874 36.6902 55.18 37.3499 53.7069 37.7894C51.4983 38.4485 49.6216 40.2772 49.6216 42.5871V45.7694C49.6216 46.2383 49.2424 46.6184 48.7746 46.6184H37.3073C34.9296 46.6184 32.9603 48.6257 33.7393 50.8774C34.1337 52.0173 34.6757 53.1083 35.3564 54.1215C36.9134 56.4388 39.1266 58.2452 41.7162 59.312C43.1145 59.888 44.5886 60.2343 46.0818 60.3455C48.1313 60.4981 49.6216 58.6654 49.6216 56.6054V51.3685C49.6216 50.8996 50.0009 50.5194 50.4687 50.5194H71.1529C71.6208 50.5194 72 50.8996 72 51.3685V70.1509C72 70.6199 71.6208 71 71.1529 71H50.4687C50.0009 71 49.6216 70.6199 49.6216 70.1509V65.6319C49.6216 63.001 47.2099 61.0422 44.6238 60.592C43.5767 60.4098 42.5474 60.1133 41.5552 59.7046C38.8886 58.6061 36.609 56.7458 35.0051 54.3586C34.2406 53.2207 33.6459 51.9875 33.2329 50.6974C32.5296 48.5005 30.7097 46.6184 28.4079 46.6184H0.847059C0.379241 46.6184 0 46.2383 0 45.7694V26.9869C0 26.518 0.379241 26.1378 0.847059 26.1378H2.72268C5.38258 26.1378 7.35124 23.6627 7.72706 21.0233C7.90899 19.7456 8.25045 18.489 8.74845 17.2838C9.9182 14.4532 11.8991 12.0337 14.4407 10.3315C15.6904 9.4945 17.0481 8.84939 18.4688 8.40983C20.6492 7.73523 22.4911 5.91681 22.4911 3.62949V0.849054C22.4911 0.380134 22.8703 0 23.3381 0H53.8372C54.305 0 54.6842 0.380135 54.6842 0.849054ZM0.847059 26.5624H48.7746C49.0085 26.5624 49.1981 26.7524 49.1981 26.9869V45.7694C49.1981 46.0038 49.0085 46.1939 48.7746 46.1939H0.847059C0.61315 46.1939 0.423529 46.0038 0.423529 45.7694V26.9869C0.423529 26.7524 0.613149 26.5624 0.847059 26.5624ZM50.4687 50.944H71.1529C71.3868 50.944 71.5765 51.134 71.5765 51.3685V70.1509C71.5765 70.3854 71.3869 70.5755 71.1529 70.5755H50.4687C50.2348 70.5755 50.0451 70.3854 50.0451 70.1509V51.3685C50.0451 51.134 50.2348 50.944 50.4687 50.944Z" fill="#010101"/>
</svg>
