<svg width="76" height="72" viewBox="0 0 76 72" fill="none" xmlns="http://www.w3.org/2000/svg">
<path fill-rule="evenodd" clip-rule="evenodd" d="M45.6393 8.63999L45.7963 8.63997H48.9725C49.2998 8.63997 49.5652 8.37018 49.5652 8.03739C49.5652 7.7046 49.2998 7.43481 48.9725 7.43481H45.7963L45.6393 7.43483H39.7766C38.1336 7.43483 36.5955 8.46527 35.2459 10.1112C33.8871 11.7682 32.6447 14.135 31.591 17.0214C29.4817 22.7995 28.0869 30.7763 28.0869 39.6522C28.0869 48.5282 29.4817 56.5049 31.591 62.2831C32.6447 65.1695 33.8871 67.5363 35.2459 69.1933C36.5955 70.8392 38.1336 71.8696 39.7766 71.8696H45.6333C45.6353 71.8696 45.6373 71.8696 45.6393 71.8696H48.8155C49.1428 71.8696 49.4081 71.5998 49.4081 71.267C49.4081 70.9342 49.1428 70.6644 48.8155 70.6644L47.5237 70.6644M45.6347 66.3753C45.6345 68.7429 43.6183 70.3147 42.1967 68.4395C41.0517 66.9292 39.9948 64.7026 39.0964 61.8874C37.3018 56.2638 36.1817 48.4259 36.1817 39.6522C36.1817 30.8785 37.3018 23.0407 39.0964 17.417C39.9948 14.6019 41.0517 12.3752 42.1967 10.8649C43.3476 9.34678 44.5162 8.63999 45.6393 8.63999M41.2579 69.1753C41.6738 69.7238 41.3062 70.6644 40.625 70.6644H39.7766C38.6443 70.6644 37.4076 69.9476 36.1562 68.4215C34.9139 66.9065 33.729 64.6764 32.7022 61.8637C30.6506 56.2437 29.2722 48.413 29.2722 39.6522C29.2722 30.8915 30.6506 23.0608 32.7022 17.4407C33.729 14.628 34.9139 12.398 36.1562 10.8829C37.4076 9.3568 38.6443 8.63999 39.7766 8.63999L40.625 8.63998C41.3062 8.63998 41.6738 9.58065 41.2579 10.1292C39.9981 11.791 38.8894 14.1611 37.969 17.0451C36.1262 22.8196 34.9965 30.7892 34.9965 39.6522C34.9965 48.5153 36.1262 56.4848 37.969 62.2594C38.8894 65.1433 39.9981 67.5135 41.2579 69.1753Z" fill="#010101"/>
<path fill-rule="evenodd" clip-rule="evenodd" d="M28.6076 16.0829L28.752 16.0829H31.5957C31.9391 16.0829 32.2174 15.8113 32.2174 15.4763C32.2174 15.1412 31.9391 14.8696 31.5957 14.8696H28.752L28.6076 14.8696H23.3526C21.8101 14.8696 20.3682 15.797 19.1085 17.2555C17.8388 18.7256 16.6752 20.8218 15.6873 23.3733C13.7094 28.4816 12.3914 35.5295 12.3914 43.3697C12.3914 51.2098 13.7094 58.2577 15.6873 63.366C16.6752 65.9175 17.8388 68.0137 19.1085 69.4838C20.3682 70.9423 21.8101 71.8696 23.3526 71.8696H28.6076H31.4513C31.7947 71.8696 32.0731 71.598 32.0731 71.263C32.0731 70.9279 31.7947 70.6563 31.4513 70.6563H28.6076C27.6092 70.6563 26.5546 70.0535 25.503 68.7225C24.4577 67.3995 23.4892 65.4438 22.6646 62.9643C21.0175 58.012 19.9882 51.105 19.9882 43.3697C19.9882 35.6343 21.0175 28.7273 22.6646 23.7749C23.4892 21.2955 24.4577 19.3398 25.503 18.0168C26.5546 16.6858 27.6092 16.0829 28.6076 16.0829ZM24.5181 17.276C24.8719 16.8282 24.5604 16.0829 23.9809 16.0829L23.3526 16.0829C22.3434 16.0829 21.2169 16.6972 20.0594 18.0373C18.912 19.3659 17.8096 21.3253 16.8507 23.8021C14.9347 28.7503 13.6349 35.6491 13.6349 43.3697C13.6349 51.0902 14.9347 57.989 16.8507 62.9372C17.8096 65.4139 18.912 67.3734 20.0594 68.702C21.2169 70.0421 22.3433 70.6563 23.3526 70.6563H23.9809C24.5604 70.6563 24.8719 69.9111 24.5181 69.4632C23.3522 67.9876 22.3294 65.8876 21.4817 63.3388C19.7841 58.2346 18.7447 51.195 18.7447 43.3697C18.7447 35.5443 19.7841 28.5047 21.4817 23.4005C22.3294 20.8517 23.3522 18.7516 24.5181 17.276Z" fill="#010101"/>
<path fill-rule="evenodd" clip-rule="evenodd" d="M13.4424 24.3423L13.5612 24.3423H15.0953C15.4269 24.3423 15.6957 24.071 15.6957 23.7363C15.6956 23.4017 15.4269 23.1304 15.0953 23.1304H13.5612L13.4424 23.1304H9.27087C7.96442 23.1304 6.74543 23.9415 5.6867 25.1914C4.61773 26.4533 3.63522 28.2485 2.79962 30.4282C1.12649 34.7925 0 40.8092 0 47.5C0 54.1907 1.12649 60.2074 2.79962 64.5717C3.63522 66.7514 4.61773 68.5466 5.6867 69.8085C6.74543 71.0583 7.96442 71.8695 9.27087 71.8695H13.4423C13.4424 71.8695 13.4424 71.8695 13.4424 71.8695H14.9764C15.308 71.8695 15.5767 71.5982 15.5767 71.2636C15.5767 70.9289 15.308 70.6576 14.9764 70.6576H13.4424C13.4424 70.6576 13.4424 70.6576 13.4423 70.6576C12.6596 70.6576 11.814 70.1687 10.9557 69.0448C10.1034 67.9288 9.30975 66.2733 8.6323 64.1661C7.27954 59.9581 6.43267 54.0835 6.43267 47.5C6.43267 40.9164 7.27954 35.0418 8.6323 30.8338C9.30975 28.7265 10.1034 27.0711 10.9557 25.9551C11.814 24.8312 12.6596 24.3423 13.4424 24.3423ZM10.0047 25.2152C10.2602 24.8807 10.0353 24.3423 9.61692 24.3423L9.27087 24.3423C8.47585 24.3423 7.56029 24.8445 6.59928 25.9789C5.6485 27.1013 4.72606 28.7613 3.91939 30.8655C2.30799 35.0688 1.20068 40.9338 1.20068 47.5C1.20068 54.0661 2.30799 59.9311 3.91939 64.1344C4.72606 66.2386 5.6485 67.8986 6.59928 69.021C7.56029 70.1554 8.47585 70.6576 9.27087 70.6576H9.61692C10.0353 70.6576 10.2602 70.1192 10.0047 69.7847C9.0361 68.5163 8.18994 66.7166 7.49024 64.5401C6.0887 60.1804 5.23199 54.1733 5.23199 47.5C5.23199 40.8266 6.0887 34.8195 7.49024 30.4598C8.18994 28.2833 9.0361 26.4836 10.0047 25.2152Z" fill="#010101"/>
<path fill-rule="evenodd" clip-rule="evenodd" d="M59.2164 4.33871C59.9019 3.21411 59.0647 1.21215 57.7447 1.21215C56.4261 1.21215 55.0072 2.02972 53.5867 3.74105C52.1753 5.44152 50.8363 7.94081 49.6792 11.0883C47.367 17.3777 45.8245 26.1371 45.8245 35.9348C45.8245 45.7325 47.367 54.4919 49.6792 60.7813C50.8363 63.9288 52.1753 66.4281 53.5867 68.1285C55.0072 69.8399 56.4261 70.6574 57.7447 70.6574C59.0647 70.6574 59.9019 68.6555 59.2164 67.5309C55.5745 61.5563 53.0914 49.649 53.0914 35.9348C53.0914 22.2206 55.5745 10.3133 59.2164 4.33871ZM64.6708 71.6183C64.6019 71.6206 64.5457 71.6762 64.5457 71.745C64.5457 71.8138 64.4897 71.8696 64.4207 71.8696H57.7447C55.9003 71.8696 54.1717 70.7346 52.65 68.9013C51.1193 67.0571 49.7218 64.4196 48.5376 61.1984C46.1672 54.7506 44.6086 45.8457 44.6086 35.9348C44.6086 26.0239 46.1672 17.119 48.5376 10.6712C49.7218 7.45003 51.1193 4.8125 52.65 2.9683C54.1717 1.13496 55.9003 1.76899e-05 57.7447 1.76899e-05L64.5945 0C64.6664 -1.85672e-07 64.7247 0.0581047 64.7247 0.129781C64.7247 0.199044 64.7791 0.255852 64.8484 0.26145C71.0345 0.761488 75.9999 16.5416 75.9999 35.9348C75.9999 55.5132 70.9392 71.4091 64.6708 71.6183ZM74.7841 35.9348C74.7841 45.6991 73.5121 54.4901 71.4871 60.7989C70.4724 63.9602 69.2899 66.4305 68.0346 68.0847C66.7643 69.7586 65.5732 70.4082 64.5456 70.4082C63.5181 70.4082 62.327 69.7586 61.0567 68.0847C59.8014 66.4305 58.6189 63.9602 57.6042 60.7989C55.5792 54.4901 54.3072 45.6991 54.3072 35.9348C54.3072 26.1705 55.5792 17.3795 57.6042 11.0707C58.6189 7.90941 59.8014 5.43909 61.0567 3.78491C62.327 2.11101 63.5181 1.46136 64.5456 1.46136C65.5732 1.46136 66.7643 2.11101 68.0346 3.78491C69.2899 5.43909 70.4724 7.90941 71.4871 11.0707C73.5121 17.3795 74.7841 26.1705 74.7841 35.9348Z" fill="#010101"/>
</svg>
