<svg width="118" height="71" viewBox="0 0 118 71" fill="none" xmlns="http://www.w3.org/2000/svg">
<path fill-rule="evenodd" clip-rule="evenodd" d="M55.872 21.1482C57.5996 19.4259 60.4004 19.4259 62.128 21.1482L65.5756 24.5854C71.622 30.6134 71.622 40.3866 65.5757 46.4146L62.128 49.8518C60.4004 51.5741 57.5996 51.5741 55.872 49.8518L52.4243 46.4146C46.378 40.3866 46.378 30.6134 52.4243 24.5854L55.872 21.1482ZM55.09 14.1316C56.8176 15.8539 56.8176 18.6463 55.09 20.3685L51.6423 23.8058C45.1641 30.2643 45.1641 40.7357 51.6423 47.1942L55.09 50.6315C56.8176 52.3537 56.8176 55.1461 55.09 56.8684L46.556 65.3765C40.5097 71.4044 30.7066 71.4044 24.6603 65.3765L5.64066 46.4146C-0.405684 40.3866 -0.405684 30.6134 5.64066 24.5854L24.6603 5.62353C30.7066 -0.404452 40.5097 -0.404452 46.556 5.62353L55.09 14.1316ZM62.128 13.352C60.4004 15.0743 57.5996 15.0743 55.872 13.352L47.338 4.84391C40.8598 -1.61464 30.3565 -1.61464 23.8783 4.84391L4.85867 23.8058C-1.61956 30.2643 -1.61956 40.7357 4.85867 47.1942L23.8783 66.1561C30.3565 72.6146 40.8598 72.6146 47.338 66.1561L55.872 57.648C57.5996 55.9257 60.4004 55.9257 62.128 57.648L70.662 66.1561C77.1402 72.6146 87.6435 72.6146 94.1217 66.1561L113.141 47.1942C119.62 40.7357 119.62 30.2643 113.141 23.8058L94.1217 4.84391C87.6435 -1.61464 77.1402 -1.61464 70.662 4.84391L62.128 13.352ZM62.91 14.1316C61.1824 15.8539 61.1824 18.6463 62.91 20.3685L66.3576 23.8058C72.8359 30.2643 72.8359 40.7357 66.3576 47.1942L62.9099 50.6315C61.1824 52.3537 61.1824 55.1461 62.91 56.8684L71.4439 65.3765C77.4903 71.4044 87.2934 71.4044 93.3397 65.3765L112.359 46.4146C118.406 40.3866 118.406 30.6134 112.359 24.5854L93.3397 5.62353C87.2934 -0.404452 77.4903 -0.404452 71.444 5.62353L62.91 14.1316Z" fill="#010101"/>
</svg>
